<svg width="62" height="57" viewBox="0 0 62 57" fill="none" xmlns="http://www.w3.org/2000/svg">
<path d="M53.2627 56.6429H8.29614C3.7223 56.6429 0 52.7809 0 48.0381V16.4037C0 11.66 3.7223 7.80029 8.29614 7.80029H53.2627C57.837 7.80029 61.5602 11.6605 61.5602 16.4037V48.0381C61.5598 52.7809 57.8365 56.6429 53.2622 56.6429H53.2627ZM8.29614 10.6673C5.24602 10.6673 2.76488 13.2403 2.76488 16.4035V48.0378C2.76488 51.1982 5.24591 53.7721 8.29614 53.7721H53.2627C56.3111 53.7721 58.7921 51.1982 58.7921 48.0378V16.4035C58.7921 13.2404 56.3111 10.6673 53.2627 10.6673H8.29614Z" fill="#FF7A00"/>
<path d="M44.2255 10.6674H17.3428V6.8466C17.3428 3.0708 20.3016 0 23.9408 0H37.6275C41.2661 0 44.2268 3.07032 44.2268 6.8466V10.6674H44.2255ZM20.1072 7.8H41.4576V6.84656C41.4576 4.65332 39.74 2.86784 37.6269 2.86784L23.9414 2.86737C21.8282 2.86737 20.1079 4.65285 20.1079 6.84609L20.1072 7.8Z" fill="#FF7A00"/>
<path d="M0.734375 28.7563H60.8236V31.6251H0.734375V28.7563Z" fill="#FF7A00"/>
<path d="M35.3064 39.2368H26.2598C25.1154 39.2368 24.1855 38.2702 24.1855 37.0842V30.9084C24.1855 29.7211 25.1153 28.7573 26.2598 28.7573H35.3064C36.4513 28.7573 37.3824 29.7215 37.3824 30.9084V37.0842C37.3829 38.2706 36.4513 39.2368 35.3064 39.2368ZM26.9501 36.3666H34.6152V31.6257H26.9501V36.3666Z" fill="#FF7A00"/>
</svg>
