<svg width="87" height="66" viewBox="0 0 87 66" fill="none" xmlns="http://www.w3.org/2000/svg">
<path d="M43.6789 1.50084H43.4818C40.3712 1.50084 37.3473 2.11926 35.2047 3.23717C35.2042 3.23744 35.2037 3.23771 35.2032 3.23798L3.96509 19.5925L3.96358 19.5933C2.87596 20.1612 2.17694 20.7543 1.83462 21.1915C1.66462 21.4087 1.58553 21.5716 1.5469 21.68C1.50941 21.7852 1.5 21.8668 1.5 21.9358C1.5 22 1.50784 22.0623 1.53963 22.1477C1.57457 22.2415 1.65233 22.3993 1.83469 22.6323L0.653521 23.5569L1.83469 22.6323C2.17706 23.0697 2.87531 23.6627 3.96317 24.2302L3.96747 24.2324L17.2176 31.1998C17.2821 31.2266 17.3458 31.2566 17.4084 31.2897L26.6647 36.1028L26.6701 36.1055L34.879 40.4157H34.9101L35.2339 40.5829C35.3631 40.6497 35.5067 40.7304 35.6187 40.7933C35.656 40.8143 35.6898 40.8333 35.7184 40.8491C35.7537 40.8688 35.7864 40.8866 35.8168 40.9028L36.0708 41.0094C36.3037 41.1072 36.5187 41.1957 36.7288 41.2736H36.7528L36.985 41.3515C37.5578 41.5437 38.1835 41.706 38.8428 41.8463H38.8757L39.0244 41.8767C39.7742 42.03 40.4845 42.1649 41.1946 42.2344L41.1961 42.2346C41.9381 42.308 42.6977 42.322 43.5182 42.322C46.6162 42.322 49.6239 41.7001 51.7603 40.5849L51.761 40.5845L69.593 31.288L69.5969 31.286L83.0334 24.2312L83.0365 24.2296C84.1031 23.6727 84.7755 23.0828 85.1288 22.6314C85.3237 22.3825 85.4152 22.2112 85.4583 22.1053C85.4975 22.0089 85.5 21.9592 85.5 21.935C85.5 21.8916 85.4902 21.6523 85.1288 21.1906C84.7755 20.7392 84.1031 20.1494 83.0365 19.5925L83.0356 19.592L51.7595 3.23714L43.6789 1.50084ZM43.6789 1.50084C46.72 1.5265 49.6614 2.14228 51.7585 3.23663L43.6789 1.50084ZM4.0326 47.1154L4.43854 46.9448L4.81266 47.1078C5.40691 47.3667 6.12776 48.2978 6.12776 49.7379C6.12776 50.603 5.85524 51.3381 5.48305 51.8258C5.1099 52.3147 4.7082 52.4816 4.39503 52.4816C4.08612 52.4816 3.69597 52.3191 3.3321 51.8348C2.96742 51.3495 2.69881 50.612 2.69881 49.7379C2.69881 48.2922 3.43026 47.3686 4.0326 47.1154ZM66.1206 39.2872L68.1696 38.2066V53.7444C68.1696 54.711 67.7871 55.796 66.7097 57.0654C65.6307 58.3365 63.948 59.6266 61.6992 60.7466L61.6989 60.7468C57.1833 62.997 50.6926 64.5 43.4788 64.5C36.2661 64.5 29.8069 62.9972 25.2958 60.747L25.2956 60.7469C23.0473 59.6258 21.3607 58.3358 20.2854 57.0665L19.1409 58.0361L20.2854 57.0665C19.2085 55.7953 18.8246 54.7108 18.8246 53.7444V38.2409L33.0858 45.6799L33.4119 45.8499H33.4367C33.6719 45.9778 33.9713 46.1372 34.2408 46.2529L34.5243 46.3747H34.5663C34.8542 46.4937 35.1527 46.6101 35.4613 46.7186L35.7029 46.8036H35.7423C36.0516 46.9108 36.4036 47.0301 36.75 47.128L36.9502 47.1847H36.9933C37.3434 47.2785 37.6844 47.3594 38.0376 47.4365L38.1957 47.471H38.2348C39.0195 47.6382 39.8742 47.8007 40.7419 47.8916C41.6599 47.9904 42.5789 48.0436 43.5161 48.0436H43.5184C47.176 48.038 50.8784 47.2422 53.8728 45.6798L53.8729 45.6797L66.1149 39.2902L66.1206 39.2872Z" stroke="#FF7A00" stroke-width="3"/>
</svg>
