<svg width="1399" height="702" viewBox="0 0 1399 702" fill="none" xmlns="http://www.w3.org/2000/svg">
<path d="M1142.8 0.76283C1142.89 0.542541 1143.06 0.349156 1143.29 0.211637C1143.52 0.0741182 1143.81 -0.000134263 1144.1 1.82254e-07H1154.9C1155.11 0.000127904 1155.32 0.0402153 1155.51 0.116962C1155.7 0.193709 1155.87 0.304921 1155.99 0.441443C1156.12 0.577964 1156.2 0.735891 1156.23 0.902223C1156.27 1.06855 1156.25 1.23853 1156.18 1.39817L1151.37 12.7492H1161.65C1161.9 12.7491 1162.15 12.8048 1162.36 12.9101C1162.58 13.0153 1162.75 13.1659 1162.86 13.3446C1162.97 13.5233 1163.02 13.723 1162.99 13.9209C1162.97 14.1188 1162.87 14.307 1162.72 14.464L1143.82 33.5879C1143.62 33.7847 1143.35 33.9218 1143.04 33.9752C1142.73 34.0287 1142.41 33.995 1142.13 33.8802C1141.85 33.7653 1141.63 33.5765 1141.5 33.3468C1141.38 33.1171 1141.37 32.861 1141.46 32.6232L1146.32 20.1863H1137.35C1137.14 20.1864 1136.93 20.148 1136.75 20.0741C1136.56 20.0002 1136.4 19.8929 1136.27 19.7607C1136.14 19.6285 1136.06 19.475 1136.02 19.3124C1135.98 19.1499 1136 18.9827 1136.05 18.8243L1142.8 0.76283ZM1145.11 2.12487L1139.15 18.0614H1148.15C1148.36 18.0614 1148.57 18.1004 1148.76 18.1753C1148.95 18.2501 1149.11 18.3588 1149.24 18.4925C1149.36 18.6263 1149.45 18.7813 1149.48 18.9452C1149.52 19.1091 1149.5 19.2773 1149.44 19.4362L1146.21 27.7084L1158.89 14.8741H1149.5C1149.29 14.874 1149.08 14.8339 1148.89 14.7572C1148.69 14.6804 1148.53 14.5692 1148.41 14.4327C1148.28 14.2962 1148.2 14.1382 1148.17 13.9719C1148.13 13.8056 1148.15 13.6356 1148.22 13.4759L1153.03 2.12487H1145.11Z" fill="#E2D4F4"/>
<path d="M487.958 160.096L485.286 155.898L489.286 148.805C489.52 148.389 489.346 147.847 488.896 147.593C488.446 147.34 487.892 147.471 487.657 147.887L483.413 155.415C483.261 155.684 483.276 156.019 483.453 156.296L486.409 160.939C486.495 161.075 486.616 161.19 486.759 161.27C487.049 161.434 487.398 161.442 487.675 161.291C488.103 161.059 488.23 160.523 487.958 160.096ZM492.716 140.818C483.723 135.747 472.632 138.377 467.943 146.692C463.255 155.007 466.744 165.859 475.737 170.93C484.732 175.988 495.814 173.361 500.511 165.056C505.199 156.741 501.71 145.889 492.716 140.818ZM476.586 169.424C468.492 164.86 465.352 155.094 469.572 147.61C473.791 140.127 483.773 137.76 491.867 142.324C499.953 146.894 503.091 156.652 498.882 164.138C494.662 171.621 484.68 173.988 476.586 169.424Z" fill="#E2D4F4"/>
<path d="M835.375 687.167H827.04C826.466 687.167 826 687.633 826 688.208V700.709C826 701.284 826.467 701.75 827.042 701.75H835.376C835.951 701.75 836.417 701.283 836.417 700.708V688.207C836.416 687.632 835.95 687.166 835.375 687.167ZM834.333 699.667H828.083V689.25H834.333V699.667ZM868.708 658H860.374C859.799 658 859.333 658.467 859.333 659.042V700.709C859.334 701.284 859.8 701.75 860.375 701.75H868.71C869.284 701.75 869.75 701.283 869.75 700.708V659.04C869.75 658.466 869.283 658 868.708 658ZM867.667 699.667H861.417V660.083H867.667V699.667ZM852.042 674.667H843.707C843.132 674.667 842.666 675.133 842.667 675.708V700.709C842.667 701.284 843.133 701.75 843.708 701.75H852.043C852.618 701.75 853.084 701.283 853.083 700.708V675.707C853.083 675.132 852.617 674.666 852.042 674.667ZM851 699.667H844.75V676.75H851V699.667Z" fill="#E2D4F4"/>
<path d="M728 311C728.253 311 728.499 311.084 728.705 311.239C728.911 311.395 729.066 311.616 729.149 311.87L730.54 316.161H742.571C743.216 316.161 743.833 316.433 744.289 316.917C744.744 317.401 745 318.057 745 318.742V336.806C745 337.49 744.744 338.147 744.289 338.631C743.833 339.115 743.216 339.387 742.571 339.387H738.079L741.292 349.288C741.397 349.612 741.376 349.967 741.235 350.275C741.094 350.582 740.843 350.818 740.539 350.93C740.234 351.041 739.9 351.02 739.611 350.869C739.321 350.719 739.099 350.453 738.994 350.13L735.509 339.387H729.214V347.128C729.214 347.471 729.086 347.799 728.859 348.041C728.631 348.283 728.322 348.419 728 348.419C727.678 348.419 727.369 348.283 727.141 348.041C726.914 347.799 726.786 347.471 726.786 347.128V339.387H720.491L717.006 350.13C716.901 350.453 716.679 350.719 716.389 350.869C716.1 351.02 715.766 351.041 715.461 350.93C715.157 350.818 714.906 350.582 714.765 350.275C714.624 349.967 714.603 349.612 714.708 349.288L717.921 339.387H713.429C712.784 339.387 712.167 339.115 711.711 338.631C711.256 338.147 711 337.49 711 336.806V318.742C711 318.057 711.256 317.401 711.711 316.917C712.167 316.433 712.784 316.161 713.429 316.161H725.46L726.851 311.87C726.934 311.616 727.089 311.395 727.295 311.239C727.501 311.084 727.747 311 728 311V311ZM713.429 318.742V336.806H742.571V318.742H713.429Z" fill="#E2D4F4"/>
<path d="M19.2196 104.342C19.2356 104.759 19.66 104.951 20.0844 105.143C28.0753 106.92 36.5065 103.886 41.4707 97.44L44.0569 94.2132L49.7338 95.4542C52.0558 96.1988 54.3057 95.0698 55.2665 92.9479L59.342 85.0771C59.342 85.0771 59.3339 84.8689 59.5421 84.8609C59.7263 84.2284 59.2939 83.828 58.6613 83.6439L51.5272 82.4589C52.0796 80.5613 52.6321 78.6637 52.7682 76.782C52.7522 76.3657 52.7442 76.1575 52.528 75.9573L46.0503 70.1604C45.8341 69.9602 45.626 69.9682 45.2096 69.9843C43.344 70.2645 41.2782 70.761 39.4286 71.4576L37.7071 64.6438C37.6911 64.2274 37.0505 63.8351 36.6341 63.8511C36.426 63.8591 36.2178 63.8671 36.2258 64.0753L28.6913 68.7434C26.8578 69.8564 26.1132 72.1784 26.6096 74.2442L28.2991 80.2253L25.4888 83.0438C19.2194 88.0802 16.8335 96.5115 19.2196 104.342ZM56.8518 85.3814L53.5611 91.9711C52.9846 93.2442 51.7515 93.7086 50.4864 93.3403L45.6502 92.2755L47.6359 89.6972C48.8209 87.9837 50.0059 86.2702 50.7666 84.3646L56.8518 85.3814ZM29.5721 69.9604L35.8815 65.9649L37.3629 71.9541C35.5213 72.8589 33.9039 74.172 32.2865 75.4852L29.6763 78.0874L28.243 73.3474C28.195 72.0983 28.5553 70.625 29.5721 69.9604ZM26.7779 84.0366L33.8079 77.0945C36.8264 74.2681 40.7178 72.4504 44.8653 71.8739L50.4862 77.0783C50.0219 81.2659 48.5086 85.2854 45.9224 88.5122L42.7357 92.3876L42.5356 92.6038L39.7492 96.0468C35.3775 101.636 27.9792 104.422 21.0532 103.229C19.3236 96.2072 21.3332 88.8328 26.7779 84.0366ZM29.8127 97.8885C32.1026 97.8004 33.696 95.8627 33.6159 93.7809C33.5358 91.6991 31.5901 89.8976 29.5083 89.9777C27.2183 90.0658 25.625 92.0035 25.7051 94.0853C25.7852 96.1671 27.5227 97.9766 29.8127 97.8885ZM29.5804 91.8513C30.6213 91.8112 31.486 92.6119 31.5261 93.6528C31.5661 94.6937 30.7654 95.5585 29.7246 95.5985C28.6837 95.6386 27.8189 94.8379 27.7789 93.797C27.7388 92.7561 28.5395 91.8913 29.5804 91.8513Z" fill="#E2D4F4"/>
<path d="M1351.6 582.462C1351.18 582.512 1351.03 582.951 1350.87 583.389C1349.75 591.499 1353.47 599.654 1360.3 604.074L1363.72 606.388L1362.95 612.147C1362.4 614.522 1363.71 616.672 1365.9 617.456L1374.08 620.874C1374.08 620.874 1374.29 620.849 1374.31 621.056C1374.96 621.188 1375.32 620.724 1375.45 620.079L1376.05 612.872C1377.99 613.267 1379.92 613.663 1381.81 613.644C1382.22 613.594 1382.43 613.569 1382.61 613.337L1387.86 606.407C1388.04 606.176 1388.02 605.969 1387.97 605.555C1387.53 603.719 1386.87 601.7 1386.02 599.914L1392.67 597.641C1393.09 597.591 1393.43 596.92 1393.38 596.507C1393.35 596.3 1393.33 596.093 1393.12 596.118L1387.85 588.991C1386.59 587.254 1384.22 586.702 1382.2 587.366L1376.38 589.539L1373.34 586.968C1367.81 581.132 1359.21 579.443 1351.6 582.462ZM1373.57 618.418L1366.74 615.677C1365.42 615.206 1364.86 614.015 1365.12 612.724L1365.79 607.817L1368.52 609.585C1370.32 610.626 1372.13 611.667 1374.09 612.27L1373.57 618.418ZM1386.71 589.968L1391.21 595.93L1385.36 597.896C1384.31 596.134 1382.87 594.63 1381.43 593.125L1378.62 590.737L1383.23 588.92C1384.47 588.77 1385.97 589.009 1386.71 589.968ZM1372.45 588.334L1379.95 594.773C1383.01 597.55 1385.14 601.28 1386.05 605.367L1381.33 611.394C1377.12 611.274 1372.99 610.094 1369.56 607.781L1365.44 604.922L1365.2 604.74L1361.54 602.244C1355.62 598.344 1352.23 591.199 1352.86 584.198C1359.71 581.9 1367.23 583.3 1372.45 588.334ZM1358.9 592.492C1359.17 594.767 1361.23 596.196 1363.3 595.946C1365.37 595.696 1367.01 593.61 1366.76 591.542C1366.48 589.266 1364.42 587.837 1362.35 588.087C1360.28 588.337 1358.62 590.217 1358.9 592.492ZM1364.89 591.767C1365.02 592.801 1364.29 593.728 1363.26 593.853C1362.22 593.978 1361.3 593.251 1361.17 592.217C1361.05 591.183 1361.77 590.255 1362.81 590.13C1363.84 590.005 1364.77 590.732 1364.89 591.767Z" fill="#E2D4F4"/>
<path d="M60.75 562C57.25 562 54.5 564.75 54.5 568.25C54.5 571.25 56.75 573.75 59.5 574.25V580.75C59.5 588.25 53.25 594.5 45.75 594.5C38.25 594.5 32 588.25 32 580.75V576.25L40.25 569.75C43 567.5 44.5 564.5 44.5 561V548.25C44.5 547.5 44 547 43.25 547H38.25C37.5 547 37 547.5 37 548.25C37 549 37.5 549.5 38.25 549.5H42V561C42 563.75 40.75 566.25 38.75 567.75L30.75 574L22.75 567.75C20.75 566 19.5 563.5 19.5 561V549.5H23.25C24 549.5 24.5 549 24.5 548.25C24.5 547.5 24 547 23.25 547H18.25C17.5 547 17 547.5 17 548.25V561C17 564.5 18.5 567.75 21.25 569.75L29.5 576.25V580.75C29.5 589.75 36.75 597 45.75 597C54.75 597 62 589.75 62 580.75V574.25C64.75 573.75 67 571.25 67 568.25C67 564.75 64.25 562 60.75 562ZM60.75 572C58.75 572 57 570.25 57 568.25C57 566.25 58.75 564.5 60.75 564.5C62.75 564.5 64.5 566.25 64.5 568.25C64.5 570.25 62.75 572 60.75 572Z" fill="#E2D4F4"/>
<path d="M392.781 363.378C393.891 364.256 395.343 364.4 396.56 363.752L437.776 341.845C439.588 340.865 440.314 338.446 439.398 336.441C438.924 335.405 438.072 334.635 437.057 334.325L427.629 331.464L421.373 313.724C421.361 313.688 421.329 313.668 421.313 313.633C421.251 313.493 421.167 313.365 421.064 313.257C421.025 313.214 420.984 313.173 420.94 313.136C420.808 313.032 420.658 312.958 420.499 312.921C420.475 312.915 420.458 312.893 420.433 312.888L420.419 312.89L420.412 312.887C420.332 312.873 420.25 312.87 420.169 312.876C420.063 312.888 419.96 312.915 419.861 312.958C419.842 312.965 419.822 312.965 419.804 312.973C419.636 313.052 419.488 313.173 419.372 313.327C419.358 313.344 419.336 313.348 419.323 313.367L412.78 322.56L401.709 314.406C401.036 313.905 400.233 313.664 399.427 313.721C397.685 313.845 396.277 315.293 396.051 317.193L391.263 359.584C391.097 361.05 391.68 362.509 392.781 363.378ZM419.813 328.569L420.858 319.472L425.262 331.966L408.593 343.146L419.538 329.252C419.689 329.06 419.785 328.822 419.813 328.569ZM398.414 317.554C398.471 317.067 398.755 316.65 399.164 316.455C399.562 316.252 400.032 316.297 400.398 316.572L412.394 325.407C412.913 325.79 413.608 325.672 413.988 325.138L418.538 318.746L417.494 327.818L401.751 347.807C401.323 348.349 401.381 349.176 401.88 349.653C402.275 350.031 402.844 350.086 403.285 349.79L426.901 333.951L436.455 336.849C436.975 336.997 437.357 337.49 437.404 338.077C437.471 338.666 437.191 339.232 436.707 339.487L395.498 361.391C395.068 361.63 394.549 361.58 394.158 361.261C393.769 360.962 393.564 360.451 393.628 359.939L398.414 317.554Z" fill="#BC9EE6" fill-opacity="0.44"/>
<path d="M1335.99 29.5179C1336.05 29.0599 1335.77 28.6342 1335.36 28.567L1325.9 27.0276L1321.67 17.4295C1321.61 17.3019 1321.51 17.1955 1321.4 17.1205C1321.02 16.8765 1320.55 17.0148 1320.33 17.4295L1316.1 27.0276L1306.64 28.567C1306.48 28.5936 1306.33 28.679 1306.21 28.81C1305.92 29.1407 1305.93 29.6714 1306.23 29.9952L1313.07 37.4682L1311.45 48.0216C1311.43 48.2029 1311.45 48.3892 1311.53 48.5519C1311.72 48.9616 1312.18 49.119 1312.54 48.9034L1321 43.9236L1329.46 48.9034C1329.56 48.9665 1329.68 48.9996 1329.81 48.9999C1329.85 48.9999 1329.89 48.996 1329.93 48.9882C1330.34 48.9111 1330.62 48.4782 1330.55 48.0216L1328.93 37.4682L1335.77 29.9952C1335.89 29.867 1335.97 29.6993 1335.99 29.5179ZM1327.6 36.5781C1327.42 36.7704 1327.34 37.0466 1327.39 37.3176L1328.81 46.6293L1321.35 42.2353C1321.24 42.1722 1321.12 42.1391 1321 42.1388C1320.88 42.1391 1320.76 42.1722 1320.65 42.2354L1313.19 46.6294L1314.61 37.3177C1314.66 37.0467 1314.58 36.7705 1314.4 36.5782L1308.36 29.9805L1316.71 28.6226C1316.95 28.5822 1317.16 28.4103 1317.27 28.1629L1321 19.697L1324.73 28.1629C1324.84 28.4104 1325.05 28.5823 1325.29 28.6226L1333.64 29.9805L1327.6 36.5781Z" fill="#E9DFF7"/>
<path d="M720.655 592.568C720.739 591.998 720.345 591.469 719.775 591.385L706.641 589.471L700.767 577.534C700.674 577.376 700.541 577.243 700.383 577.15C699.867 576.846 699.203 577.018 698.899 577.534L693.026 589.471L679.891 591.385C679.665 591.418 679.457 591.524 679.297 591.687C678.895 592.099 678.902 592.759 679.313 593.161L688.818 602.455L686.574 615.579C686.536 615.805 686.573 616.037 686.68 616.239C686.948 616.748 687.578 616.944 688.088 616.676L699.833 610.483L711.578 616.676C711.728 616.754 711.895 616.796 712.065 616.796C712.123 616.796 712.18 616.791 712.238 616.782C712.805 616.686 713.188 616.147 713.092 615.579L710.848 602.455L720.353 593.161C720.516 593.002 720.622 592.793 720.655 592.568ZM709.001 601.348C708.757 601.587 708.645 601.931 708.702 602.268L710.681 613.848L700.319 608.383C700.169 608.305 700.003 608.264 699.833 608.263C699.664 608.264 699.497 608.305 699.347 608.384L688.985 613.848L690.965 602.268C691.022 601.931 690.91 601.587 690.666 601.348L682.275 593.143L693.868 591.454C694.207 591.404 694.5 591.19 694.651 590.883L699.833 580.354L705.015 590.883C705.166 591.19 705.459 591.404 705.798 591.454L717.391 593.143L709.001 601.348Z" fill="#E9DFF7"/>
<path d="M260.991 13.3003C261.057 12.8137 260.745 12.3613 260.294 12.29L249.891 10.6543L245.24 0.456388C245.166 0.32081 245.061 0.207719 244.935 0.12798C244.527 -0.131227 244.001 0.015758 243.76 0.456388L239.108 10.6543L228.706 12.29C228.527 12.3182 228.362 12.4089 228.236 12.5481C227.917 12.8995 227.922 13.4633 228.248 13.8074L235.776 21.7474L233.999 32.9605C233.969 33.1531 233.998 33.351 234.082 33.5239C234.295 33.9592 234.794 34.1265 235.198 33.8973L244.5 28.6063L253.802 33.8973C253.921 33.9644 254.053 33.9996 254.187 33.9999C254.233 33.9999 254.279 33.9958 254.324 33.9875C254.774 33.9055 255.077 33.4456 255.001 32.9605L253.224 21.7474L260.752 13.8074C260.881 13.6712 260.965 13.493 260.991 13.3003ZM251.761 20.8017C251.567 21.0061 251.479 21.2995 251.524 21.5874L253.092 31.4812L244.885 26.8125C244.766 26.7455 244.634 26.7103 244.5 26.7099C244.366 26.7103 244.234 26.7455 244.115 26.8126L235.908 31.4813L237.476 21.5875C237.521 21.2996 237.433 21.0062 237.239 20.8019L230.594 13.7917L239.776 12.3491C240.044 12.306 240.276 12.1234 240.396 11.8606L244.5 2.86551L248.604 11.8606C248.724 12.1235 248.956 12.3061 249.224 12.3491L258.406 13.7917L251.761 20.8017Z" fill="#E9DFF7"/>
<path d="M41.6554 326.568C41.739 325.998 41.345 325.469 40.7755 325.385L27.6407 323.471L21.7671 311.534C21.6737 311.376 21.5414 311.243 21.3827 311.15C20.8669 310.846 20.2028 311.018 19.8994 311.534L14.0258 323.471L0.891015 325.385C0.665439 325.418 0.456902 325.524 0.297448 325.687C-0.105257 326.099 -0.0981365 326.759 0.313215 327.161L9.81842 336.455L7.57437 349.579C7.53622 349.805 7.57322 350.037 7.67978 350.239C7.94782 350.748 8.57839 350.944 9.08804 350.676L20.8332 344.483L32.5784 350.676C32.7285 350.754 32.8953 350.796 33.0647 350.796C33.1227 350.796 33.1804 350.791 33.2376 350.782C33.8055 350.686 34.1881 350.147 34.0921 349.579L31.848 336.455L41.3533 327.161C41.5161 327.002 41.6223 326.793 41.6554 326.568ZM30.0007 335.348C29.7566 335.587 29.6448 335.931 29.7016 336.268L31.6812 347.848L21.3195 342.383C21.1694 342.305 21.0026 342.264 20.8332 342.263C20.6639 342.264 20.4972 342.305 20.347 342.384L9.98538 347.848L11.9648 336.268C12.0217 335.931 11.9099 335.587 11.6658 335.348L3.27545 327.143L14.8681 325.454C15.2072 325.404 15.5 325.19 15.6514 324.883L20.8332 314.354L26.0151 324.883C26.1664 325.19 26.4593 325.404 26.7984 325.454L38.391 327.143L30.0007 335.348Z" fill="#E9DFF7"/>
<path fill-rule="evenodd" clip-rule="evenodd" d="M1357.64 317.272C1357.06 316.047 1356.92 314.669 1357.26 313.441C1357.6 312.213 1358.4 311.236 1359.47 310.725L1374.59 303.499C1375.57 303.031 1376.71 302.987 1377.8 303.374C1378.89 303.761 1379.85 304.553 1380.51 305.603L1385.25 299.414C1385.49 299.11 1385.79 298.883 1386.14 298.753C1386.49 298.623 1386.87 298.594 1387.25 298.669C1387.64 298.744 1388 298.92 1388.33 299.182C1388.65 299.444 1388.91 299.782 1389.1 300.167L1397.34 317.406C1397.52 317.79 1397.62 318.209 1397.62 318.624C1397.62 319.038 1397.52 319.436 1397.34 319.78C1397.16 320.124 1396.9 320.404 1396.58 320.594C1396.26 320.784 1395.89 320.879 1395.51 320.869L1387.71 320.674C1388.11 321.847 1388.12 323.094 1387.74 324.184C1387.36 325.274 1386.61 326.133 1385.63 326.6L1370.51 333.826C1369.44 334.338 1368.18 334.341 1367.01 333.836C1365.84 333.331 1364.85 332.359 1364.27 331.133L1357.64 317.272ZM1386.54 318.147L1395.32 318.369L1387.08 301.131L1381.74 308.098L1386.54 318.147ZM1360.57 313.035C1360.04 313.291 1359.64 313.779 1359.47 314.393C1359.3 315.007 1359.37 315.696 1359.66 316.309L1366.28 330.17C1366.57 330.782 1367.07 331.268 1367.65 331.521C1368.24 331.774 1368.87 331.772 1369.4 331.516L1384.53 324.29C1385.06 324.034 1385.46 323.546 1385.63 322.932C1385.8 322.318 1385.73 321.629 1385.44 321.016L1378.81 307.155C1378.52 306.543 1378.03 306.057 1377.44 305.804C1376.86 305.551 1376.23 305.553 1375.69 305.809L1360.57 313.035Z" fill="#E2D4F4"/>
</svg>
