<svg width="128" height="153" viewBox="0 0 128 153" fill="none" xmlns="http://www.w3.org/2000/svg">
<g filter="url(#filter0_d_2437_13658)">
<ellipse cx="-9.28034" cy="15.1493" rx="16.9355" ry="15.1493" fill="#EBEDFF" fill-opacity="0.74"/>
<ellipse cx="-9.28034" cy="54.1045" rx="16.9355" ry="15.1493" fill="#EBEDFF" fill-opacity="0.74"/>
<ellipse cx="-9.28034" cy="90.8955" rx="16.9355" ry="15.1493" fill="#EBEDFF" fill-opacity="0.74"/>
<ellipse cx="-9.28034" cy="129.851" rx="16.9355" ry="15.1493" fill="#EBEDFF" fill-opacity="0.74"/>
<ellipse cx="29.4296" cy="15.1493" rx="16.9355" ry="15.1493" fill="#EBEDFF" fill-opacity="0.74"/>
<ellipse cx="29.4296" cy="54.1045" rx="16.9355" ry="15.1493" fill="#282B45" fill-opacity="0.79"/>
<ellipse cx="29.4296" cy="90.8955" rx="16.9355" ry="15.1493" fill="#EBEDFF" fill-opacity="0.74"/>
<ellipse cx="29.4296" cy="129.851" rx="16.9355" ry="15.1493" fill="#EBEDFF" fill-opacity="0.74"/>
<ellipse cx="68.1386" cy="15.1493" rx="16.9355" ry="15.1493" fill="#EBEDFF" fill-opacity="0.74"/>
<ellipse cx="68.1386" cy="54.1045" rx="16.9355" ry="15.1493" fill="#EBEDFF" fill-opacity="0.74"/>
<ellipse cx="68.1386" cy="90.8955" rx="16.9355" ry="15.1493" fill="#EBEDFF" fill-opacity="0.74"/>
<ellipse cx="68.1386" cy="129.851" rx="16.9355" ry="15.1493" fill="#EBEDFF" fill-opacity="0.74"/>
<ellipse cx="106.849" cy="15.1493" rx="16.9355" ry="15.1493" fill="#EBEDFF" fill-opacity="0.74"/>
<ellipse cx="106.849" cy="54.1045" rx="16.9355" ry="15.1493" fill="#EBEDFF" fill-opacity="0.74"/>
<ellipse cx="106.849" cy="90.8955" rx="16.9355" ry="15.1493" fill="#EBEDFF" fill-opacity="0.74"/>
<ellipse cx="106.849" cy="129.851" rx="16.9355" ry="15.1493" fill="#282B45" fill-opacity="0.79"/>
</g>
<defs>
<filter id="filter0_d_2437_13658" x="-30.2158" y="0" width="158" height="153" filterUnits="userSpaceOnUse" color-interpolation-filters="sRGB">
<feFlood flood-opacity="0" result="BackgroundImageFix"/>
<feColorMatrix in="SourceAlpha" type="matrix" values="0 0 0 0 0 0 0 0 0 0 0 0 0 0 0 0 0 0 127 0" result="hardAlpha"/>
<feOffset dy="4"/>
<feGaussianBlur stdDeviation="2"/>
<feComposite in2="hardAlpha" operator="out"/>
<feColorMatrix type="matrix" values="0 0 0 0 0 0 0 0 0 0 0 0 0 0 0 0 0 0 0.25 0"/>
<feBlend mode="normal" in2="BackgroundImageFix" result="effect1_dropShadow_2437_13658"/>
<feBlend mode="normal" in="SourceGraphic" in2="effect1_dropShadow_2437_13658" result="shape"/>
</filter>
</defs>
</svg>
