<svg width="248" height="183" viewBox="0 0 248 183" fill="none" xmlns="http://www.w3.org/2000/svg">
<g clip-path="url(#clip0_2741_31)">
<path d="M172 55.5C172 24.8482 146.928 0 116 0C85.0721 0 60 24.8482 60 55.5C60 86.1518 85.0721 111 116 111C146.928 111 172 86.1518 172 55.5Z" fill="white"/>
<path d="M152.843 58.1953C152.438 63.3298 150.945 68.3218 148.461 72.8453C145.977 77.3687 142.557 81.3218 138.426 84.4463C134.295 87.5707 129.546 89.7961 124.488 90.9772C119.43 92.1583 114.177 92.2684 109.073 91.3003C108.286 91.1473 107.578 90.7271 107.07 90.1122C106.562 89.4972 106.286 88.726 106.29 87.9312V78.7591C106.288 78.5757 106.33 78.3945 106.414 78.2311C106.498 78.0677 106.621 77.9269 106.772 77.8209C106.923 77.7148 107.098 77.6468 107.282 77.6224C107.465 77.598 107.652 77.6181 107.826 77.681C112.622 79.4035 117.848 79.566 122.744 78.1451C127.64 76.7243 131.952 73.7938 135.053 69.7793C138.155 65.7647 139.885 60.875 139.992 55.82C140.099 50.7649 138.577 45.8076 135.648 41.6677C132.719 37.5278 128.535 34.4207 123.704 32.7976C118.872 31.1745 113.644 31.1198 108.779 32.6414C103.914 34.163 99.6642 37.1818 96.6477 41.2595C93.6312 45.3372 92.0045 50.2615 92.0038 55.3177C92.0038 55.7695 92.0038 56.2056 92.0438 56.6416H92.0038V79.9245C91.9998 80.1982 91.9155 80.4647 91.7613 80.6918C91.607 80.9189 91.3895 81.0966 91.1352 81.2033C90.8809 81.31 90.6007 81.3411 90.3289 81.2928C90.057 81.2445 89.8052 81.1189 89.6041 80.9312C85.2817 76.5504 82.1374 71.1649 80.4591 65.2678C78.7807 59.3707 78.622 53.1505 79.9975 47.1769C81.373 41.2033 84.2386 35.6671 88.3321 31.0754C92.4256 26.4836 97.616 22.9831 103.428 20.8943C109.24 18.8056 115.488 18.1953 121.6 19.1194C127.711 20.0435 133.491 22.4726 138.411 26.184C143.33 29.8954 147.231 34.7706 149.756 40.3632C152.282 45.9558 153.352 52.087 152.867 58.1953H152.843Z" fill="#2B2E4A"/>
<path d="M128.054 55.3177C128.055 56.9112 127.735 58.4889 127.113 59.958C126.49 61.4272 125.577 62.7582 124.428 63.8727C123.279 64.9873 121.917 65.8628 120.421 66.448C118.926 67.0332 117.327 67.3161 115.72 67.2802C112.654 67.1758 109.74 65.931 107.558 63.7936C105.376 61.6562 104.086 58.783 103.945 55.7458C103.888 52.5773 105.103 49.5161 107.323 47.2355C109.543 44.955 112.587 43.6418 115.784 43.585C118.981 43.5283 122.069 44.7325 124.371 46.9328C126.672 49.1331 127.997 52.1492 128.054 55.3177Z" fill="#2B2E4A"/>
<path d="M122.167 52.1545C122.009 52.5929 121.748 52.988 121.407 53.3078C121.065 53.6275 120.653 53.8628 120.202 53.9945C119.751 54.1262 119.276 54.1506 118.814 54.0657C118.352 53.9808 117.917 53.7889 117.544 53.5058C117.171 53.2227 116.871 52.8563 116.667 52.4364C116.464 52.0166 116.364 51.5551 116.375 51.0896C116.386 50.6241 116.508 50.1678 116.73 49.7578C116.953 49.3477 117.27 48.9955 117.656 48.7299C116.089 48.3537 114.438 48.5228 112.982 49.209C111.526 49.8952 110.351 51.0567 109.656 52.4988C108.961 53.9409 108.788 55.576 109.164 57.13C109.541 58.684 110.445 60.0624 111.725 61.0342C113.006 62.0061 114.584 62.5122 116.196 62.4678C117.808 62.4235 119.355 61.8313 120.579 60.7906C121.803 59.7498 122.629 58.3238 122.918 56.7515C123.207 55.1792 122.942 53.5562 122.167 52.1545Z" fill="url(#paint0_linear_2741_31)"/>
</g>
<path d="M12.159 163.897H15.2781C16.8992 163.897 18.2385 163.23 19.296 161.892C20.3535 160.555 20.8818 158.92 20.8818 156.984C20.8818 155.05 20.3535 153.405 19.296 152.05C18.2385 150.696 16.8992 150.018 15.2781 150.018H12.159C11.8764 150.018 11.6213 150.116 11.392 150.308C11.1628 150.503 11.049 150.775 11.049 151.126V162.789C11.049 163.141 11.1628 163.414 11.392 163.606C11.6213 163.801 11.8764 163.897 12.159 163.897ZM2.27278 181.153V150.969C2.27278 149.14 1.86771 147.678 1.05671 146.588C0.810226 146.237 0.730936 145.938 0.818845 145.691C0.906753 145.446 1.09205 145.321 1.37388 145.321H17.2345C20.6172 145.321 23.5863 146.475 26.1425 148.779C28.6971 151.082 29.9752 153.836 29.9752 157.036C29.9752 160.203 28.6971 162.93 26.1425 165.216C23.5863 167.503 20.6172 168.647 17.2345 168.647H12.159C11.8764 168.647 11.6213 168.753 11.392 168.963C11.1628 169.174 11.049 169.437 11.049 169.755V181.153C11.049 181.436 10.9344 181.69 10.7051 181.918C10.475 182.148 10.2027 182.261 9.88549 182.261H3.38284C3.10016 182.261 2.84505 182.148 2.61666 181.918C2.38655 181.69 2.27278 181.436 2.27278 181.153Z" fill="#FF7A00"/>
<path d="M54.2407 173.765C54.6285 173.132 54.8224 172.411 54.8224 171.602V165.216C54.8224 164.407 54.6285 163.686 54.2407 163.053C52.5834 160.274 50.4339 158.884 47.7906 158.884C45.711 158.884 43.9847 159.746 42.6101 161.469C41.2354 163.194 40.5485 165.515 40.5485 168.436C40.5485 171.32 41.2354 173.625 42.6101 175.348C43.9847 177.073 45.711 177.934 47.7906 177.934C50.3632 177.934 52.5136 176.545 54.2407 173.765ZM62.8583 155.665V176.615C62.8583 178.444 63.2625 179.905 64.0744 180.994C64.32 181.347 64.3993 181.646 64.3123 181.891C64.2235 182.138 64.0382 182.261 63.7572 182.261H56.5143C56.1971 182.261 55.923 182.148 55.6946 181.919C55.4645 181.69 55.3508 181.417 55.3508 181.1V180.309C55.3508 179.394 54.9448 179.271 54.1347 179.94C51.8086 181.98 48.9541 183 45.5705 183C41.6586 183 38.4594 181.594 35.9755 178.778C33.49 175.965 32.248 172.517 32.248 168.436C32.248 164.356 33.4986 160.898 36.0014 158.066C38.5033 155.235 41.693 153.818 45.5705 153.818C48.7068 153.818 51.4207 154.733 53.7124 156.562C53.958 156.739 54.1614 156.818 54.32 156.799C54.4786 156.783 54.6018 156.729 54.6897 156.641C54.7776 156.554 54.8224 156.457 54.8224 156.352V155.665C54.8224 155.384 54.9362 155.129 55.1655 154.899C55.3947 154.671 55.6679 154.557 55.9851 154.557H61.7474C62.0292 154.557 62.2843 154.671 62.5145 154.899C62.7428 155.129 62.8583 155.384 62.8583 155.665Z" fill="#FF7A00"/>
<path d="M79.5108 158.145C77.4303 158.145 76.3918 158.849 76.3918 160.256C76.3918 160.643 76.5141 161.004 76.7615 161.337C77.008 161.673 77.37 161.989 77.8448 162.287C78.3214 162.586 78.7972 162.851 79.2729 163.079C79.7487 163.308 80.3649 163.599 81.1233 163.95C81.8809 164.302 82.5057 164.601 82.9996 164.847C85.5722 166.184 87.4139 167.644 88.524 169.227C89.6349 170.81 90.0658 172.604 89.8194 174.61C89.5022 177.142 88.4094 179.173 86.5417 180.705C84.6733 182.235 82.1713 183 79.035 183C76.8847 183 74.8318 182.551 72.8754 181.655C70.9199 180.757 69.3772 179.588 68.2499 178.145C67.7914 177.548 67.7035 176.949 67.9853 176.351L69.6245 172.763C69.765 172.411 70.0382 172.261 70.4441 172.315C70.8483 172.366 71.1224 172.604 71.2638 173.027C71.7921 174.469 72.6987 175.77 73.9863 176.932C75.2722 178.092 76.6382 178.673 78.0836 178.673C80.9027 178.673 82.3127 177.653 82.3127 175.612C82.3127 175.014 82.1093 174.46 81.7042 173.95C81.2991 173.44 80.8854 173.053 80.4623 172.789C80.0391 172.525 79.3789 172.165 78.48 171.707C77.5811 171.25 76.9735 170.916 76.6555 170.705C76.4443 170.599 75.9238 170.309 75.0964 169.833C74.2682 169.359 73.7295 169.033 73.4839 168.857C73.2365 168.682 72.7961 168.365 72.1627 167.908C71.5275 167.451 71.1052 167.046 70.8932 166.694C70.682 166.342 70.4079 165.885 70.0735 165.322C69.7383 164.759 69.5271 164.144 69.4392 163.474C69.3513 162.807 69.3246 162.069 69.3599 161.258C69.4659 159.042 70.4347 157.248 72.2678 155.875C74.1001 154.504 76.4443 153.818 79.2988 153.818C80.8854 153.818 82.4885 154.09 84.1096 154.636C85.7308 155.182 86.9822 155.894 87.8638 156.773C88.3568 157.267 88.4266 157.846 88.075 158.515L86.7003 161.681C86.5237 161.962 86.2332 162.076 85.8281 162.024C85.4222 161.971 85.1318 161.786 84.9559 161.469C84.4276 160.591 83.6425 159.816 82.6031 159.148C81.5637 158.48 80.5329 158.145 79.5108 158.145Z" fill="#FF7A00"/>
<path d="M104.728 158.145C102.647 158.145 101.609 158.849 101.609 160.256C101.609 160.643 101.731 161.004 101.978 161.337C102.225 161.673 102.587 161.989 103.062 162.287C103.538 162.586 104.014 162.851 104.49 163.079C104.965 163.308 105.582 163.599 106.34 163.95C107.098 164.302 107.723 164.601 108.216 164.847C110.789 166.184 112.631 167.644 113.741 169.227C114.852 170.81 115.283 172.604 115.036 174.61C114.719 177.142 113.626 179.173 111.759 180.705C109.89 182.235 107.388 183 104.252 183C102.102 183 100.049 182.551 98.0922 181.655C96.1367 180.757 94.594 179.588 93.4667 178.145C93.0082 177.548 92.9203 176.949 93.2021 176.351L94.8413 172.763C94.9818 172.411 95.255 172.261 95.6609 172.315C96.0651 172.366 96.3392 172.604 96.4806 173.027C97.0089 174.469 97.9155 175.77 99.2031 176.932C100.489 178.092 101.855 178.673 103.3 178.673C106.119 178.673 107.529 177.653 107.529 175.612C107.529 175.014 107.326 174.46 106.921 173.95C106.516 173.44 106.102 173.053 105.679 172.789C105.256 172.525 104.596 172.165 103.697 171.707C102.798 171.25 102.19 170.916 101.872 170.705C101.661 170.599 101.141 170.309 100.313 169.833C99.485 169.359 98.9463 169.033 98.7007 168.857C98.4533 168.682 98.0129 168.365 97.3795 167.908C96.7443 167.451 96.322 167.046 96.11 166.694C95.8988 166.342 95.6247 165.885 95.2903 165.322C94.9551 164.759 94.7439 164.144 94.656 163.474C94.5681 162.807 94.5414 162.069 94.5767 161.258C94.6827 159.042 95.6515 157.248 97.4846 155.875C99.3169 154.504 101.661 153.818 104.516 153.818C106.102 153.818 107.705 154.09 109.326 154.636C110.948 155.182 112.199 155.894 113.081 156.773C113.574 157.267 113.643 157.846 113.292 158.515L111.917 161.681C111.74 161.962 111.45 162.076 111.045 162.024C110.639 161.971 110.349 161.786 110.173 161.469C109.644 160.591 108.859 159.816 107.82 159.148C106.781 158.48 105.75 158.145 104.728 158.145Z" fill="#FF7A00"/>
<path d="M120.348 144.372C121.282 143.458 122.401 143 123.706 143C125.009 143 126.129 143.458 127.063 144.372C127.997 145.287 128.464 146.395 128.464 147.696C128.464 148.999 127.997 150.107 127.063 151.021C126.129 151.936 125.009 152.393 123.706 152.393C122.401 152.393 121.282 151.936 120.348 151.021C119.414 150.107 118.948 148.999 118.948 147.696C118.948 146.395 119.414 145.287 120.348 144.372ZM119.846 181.153V160.203C119.846 158.374 119.441 156.914 118.63 155.823C118.383 155.471 118.304 155.173 118.392 154.927C118.48 154.68 118.665 154.557 118.948 154.557H126.772C127.089 154.557 127.362 154.671 127.591 154.899C127.82 155.129 127.935 155.401 127.935 155.717V181.153C127.935 181.435 127.82 181.69 127.591 181.919C127.362 182.148 127.089 182.261 126.772 182.261H120.957C120.674 182.261 120.419 182.148 120.19 181.919C119.961 181.69 119.846 181.435 119.846 181.153Z" fill="#FF7A00"/>
<path d="M148.447 178.673C150.562 178.673 152.315 177.697 153.708 175.745C155.1 173.791 155.796 171.356 155.796 168.436C155.796 165.446 155.1 162.983 153.708 161.048C152.315 159.113 150.562 158.145 148.447 158.145C146.368 158.145 144.632 159.121 143.24 161.074C141.847 163.026 141.152 165.48 141.152 168.436C141.152 171.356 141.847 173.791 143.24 175.745C144.632 177.697 146.368 178.673 148.447 178.673ZM148.447 153.817C153.1 153.817 156.88 155.19 159.788 157.934C162.695 160.678 164.149 164.179 164.149 168.436C164.149 172.657 162.695 176.141 159.788 178.884C156.88 181.628 153.1 183 148.447 183C143.83 183 140.068 181.628 137.161 178.884C134.253 176.141 132.799 172.657 132.799 168.436C132.799 164.214 134.253 160.723 137.161 157.96C140.068 155.199 143.83 153.817 148.447 153.817Z" fill="#FF7A00"/>
<path d="M195.394 164.319V181.153C195.394 181.435 195.279 181.69 195.05 181.919C194.821 182.148 194.548 182.261 194.23 182.261H188.468C188.151 182.261 187.878 182.148 187.648 181.919C187.419 181.69 187.305 181.435 187.305 181.153V164.847C187.305 163.018 186.917 161.576 186.142 160.52C185.366 159.465 184.256 158.936 182.812 158.936C181.437 158.867 180.142 159.517 178.926 160.889C177.71 162.261 177.102 163.827 177.102 165.586V181.153C177.102 181.435 176.987 181.69 176.758 181.919C176.529 182.148 176.238 182.261 175.886 182.261H170.124C169.841 182.261 169.586 182.148 169.357 181.919C169.127 181.69 169.014 181.435 169.014 181.153V160.203C169.014 158.375 168.608 156.915 167.797 155.823C167.55 155.472 167.471 155.173 167.56 154.927C167.647 154.681 167.832 154.557 168.115 154.557H175.304C175.657 154.557 175.947 154.671 176.176 154.9C176.406 155.129 176.52 155.401 176.52 155.718V156.193C176.52 156.545 176.617 156.765 176.811 156.852C177.005 156.94 177.224 156.879 177.472 156.667C179.693 154.767 182.247 153.818 185.138 153.818C187.992 153.818 190.415 154.795 192.407 156.747C194.398 158.7 195.394 161.224 195.394 164.319Z" fill="#FF7A00"/>
<path d="M215.536 154.504L211.148 166.272C210.865 167.046 211.095 167.432 211.835 167.432H219.924C220.698 167.432 220.946 167.046 220.664 166.272L216.435 154.504C216.363 154.259 216.223 154.134 216.012 154.134C215.765 154.134 215.607 154.259 215.536 154.504ZM211.782 145.321H220.4C221.246 145.321 221.809 145.726 222.091 146.535L235.255 181.153C235.361 181.436 235.334 181.69 235.177 181.918C235.017 182.148 234.761 182.261 234.409 182.261H227.536C226.761 182.261 226.232 181.892 225.95 181.153L222.99 172.921C222.813 172.393 222.373 172.129 221.669 172.129H209.826C209.262 172.129 208.892 172.393 208.716 172.921L205.756 181.153C205.473 181.892 204.944 182.261 204.17 182.261H200.257C199.904 182.261 199.641 182.148 199.464 181.918C199.287 181.69 199.253 181.436 199.358 181.153L210.884 150.969C211.271 149.912 211.465 149.015 211.465 148.277C211.465 147.643 211.341 147.081 211.095 146.588C210.954 146.272 210.954 145.982 211.095 145.718C211.235 145.454 211.465 145.321 211.782 145.321Z" fill="white"/>
<path d="M239.669 144.372C240.602 143.458 241.722 143 243.027 143C244.33 143 245.449 143.458 246.383 144.372C247.317 145.287 247.784 146.395 247.784 147.696C247.784 148.999 247.317 150.107 246.383 151.021C245.449 151.936 244.33 152.393 243.027 152.393C241.722 152.393 240.602 151.936 239.669 151.021C238.735 150.107 238.268 148.999 238.268 147.696C238.268 146.395 238.735 145.287 239.669 144.372ZM239.166 181.153V160.203C239.166 158.374 238.761 156.914 237.95 155.823C237.704 155.471 237.624 155.173 237.712 154.927C237.8 154.68 237.986 154.557 238.268 154.557H246.092C246.409 154.557 246.683 154.671 246.912 154.899C247.14 155.129 247.256 155.401 247.256 155.717V181.153C247.256 181.435 247.14 181.69 246.912 181.919C246.683 182.148 246.409 182.261 246.092 182.261H240.277C239.995 182.261 239.739 182.148 239.51 181.919C239.281 181.69 239.166 181.435 239.166 181.153Z" fill="white"/>
<defs>
<linearGradient id="paint0_linear_2741_31" x1="108.961" y1="55.4999" x2="123.031" y2="55.4999" gradientUnits="userSpaceOnUse">
<stop stop-color="#FF6D00"/>
<stop offset="0.29" stop-color="#FF7300"/>
<stop offset="0.67" stop-color="#FF8300"/>
<stop offset="1" stop-color="#FF9700"/>
</linearGradient>
<clipPath id="clip0_2741_31">
<rect width="112" height="111" fill="white" transform="translate(60)"/>
</clipPath>
</defs>
</svg>
