<svg width="186" height="52" viewBox="0 0 186 52" fill="none" xmlns="http://www.w3.org/2000/svg">
<path d="M65.9161 26.1095H67.496C68.3171 26.1095 68.9955 25.7826 69.5312 25.1274C70.0669 24.4727 70.3345 23.6717 70.3345 22.7238C70.3345 21.7766 70.0669 20.9711 69.5312 20.3075C68.9955 19.6443 68.3171 19.3123 67.496 19.3123H65.9161C65.7729 19.3123 65.6437 19.3599 65.5275 19.4543C65.4114 19.5495 65.3538 19.6831 65.3538 19.855V25.5669C65.3538 25.7392 65.4114 25.8727 65.5275 25.9671C65.6437 26.0623 65.7729 26.1095 65.9161 26.1095ZM60.9083 34.5609V19.7779C60.9083 18.8821 60.7031 18.1663 60.2923 17.6325C60.1675 17.4606 60.1273 17.314 60.1719 17.193C60.2164 17.073 60.3102 17.0119 60.453 17.0119H68.487C70.2004 17.0119 71.7044 17.5769 72.9992 18.7052C74.2932 19.8335 74.9406 21.1821 74.9406 22.7495C74.9406 24.3004 74.2932 25.636 72.9992 26.7554C71.7044 27.8757 70.2004 28.4356 68.487 28.4356H65.9161C65.7729 28.4356 65.6437 28.4875 65.5275 28.5907C65.4114 28.6939 65.3538 28.8228 65.3538 28.9783V34.5609C65.3538 34.699 65.2957 34.8238 65.1796 34.9354C65.063 35.0479 64.9251 35.1035 64.7644 35.1035H61.4706C61.3274 35.1035 61.1982 35.0479 61.0825 34.9354C60.966 34.8238 60.9083 34.699 60.9083 34.5609Z" fill="#FF7A00"/>
<path d="M87.2319 30.9424C87.4283 30.6323 87.5265 30.2792 87.5265 29.8827V26.7552C87.5265 26.3592 87.4283 26.0061 87.2319 25.696C86.3924 24.3347 85.3036 23.6543 83.9647 23.6543C82.9113 23.6543 82.0368 24.0765 81.3405 24.9204C80.6442 25.7651 80.2963 26.9019 80.2963 28.3323C80.2963 29.745 80.6442 30.8737 81.3405 31.7176C82.0368 32.5623 82.9113 32.9841 83.9647 32.9841C85.2678 32.9841 86.357 32.3037 87.2319 30.9424ZM91.597 22.0777V32.3382C91.597 33.2339 91.8017 33.9493 92.213 34.4827C92.3374 34.6555 92.3775 34.8021 92.3335 34.9222C92.2885 35.0431 92.1946 35.1033 92.0523 35.1033H88.3835C88.2228 35.1033 88.084 35.0477 87.9683 34.9357C87.8518 34.8236 87.7941 34.69 87.7941 34.5346V34.1469C87.7941 33.6991 87.5885 33.6388 87.1782 33.9662C85.9999 34.9656 84.554 35.4648 82.8401 35.4648C80.8586 35.4648 79.2381 34.7764 77.9799 33.3974C76.7209 32.0197 76.0918 30.331 76.0918 28.3323C76.0918 26.3339 76.7252 24.6406 77.993 23.2536C79.2603 21.867 80.876 21.1731 82.8401 21.1731C84.4287 21.1731 85.8034 21.6214 86.9642 22.5171C87.0887 22.6035 87.1917 22.6423 87.272 22.633C87.3523 22.625 87.4148 22.5989 87.4593 22.5559C87.5038 22.5129 87.5265 22.4653 87.5265 22.4139V22.0777C87.5265 21.9399 87.5842 21.8152 87.7003 21.7027C87.8164 21.5911 87.9548 21.535 88.1154 21.535H91.0343C91.177 21.535 91.3062 21.5911 91.4228 21.7027C91.5385 21.8152 91.597 21.9399 91.597 22.0777Z" fill="#FF7A00"/>
<path d="M100.031 23.2924C98.9771 23.2924 98.4511 23.6371 98.4511 24.3264C98.4511 24.516 98.5131 24.6925 98.6384 24.856C98.7632 25.0203 98.9466 25.1753 99.1871 25.3211C99.4285 25.4677 99.6695 25.5971 99.9105 25.7087C100.151 25.8212 100.464 25.9636 100.848 26.1355C101.232 26.3079 101.548 26.4545 101.798 26.575C103.101 27.2297 104.034 27.9447 104.596 28.7199C105.159 29.4952 105.377 30.3741 105.253 31.3562C105.092 32.5965 104.538 33.5913 103.592 34.3412C102.646 35.0908 101.379 35.4653 99.79 35.4653C98.7008 35.4653 97.6609 35.2454 96.6699 34.8064C95.6794 34.3669 94.898 33.7944 94.3269 33.0878C94.0947 32.795 94.0502 32.5017 94.1929 32.2089L95.0232 30.4516C95.0944 30.2793 95.2328 30.2059 95.4384 30.2321C95.6432 30.2574 95.782 30.3741 95.8536 30.5809C96.1212 31.2875 96.5804 31.9245 97.2327 32.4933C97.884 33.0617 98.5759 33.3461 99.308 33.3461C100.736 33.3461 101.45 32.8468 101.45 31.847C101.45 31.5542 101.347 31.2829 101.142 31.033C100.937 30.7832 100.727 30.5936 100.513 30.4642C100.299 30.3353 99.9642 30.1588 99.5089 29.9346C99.0535 29.7109 98.7458 29.547 98.5847 29.4438C98.4777 29.392 98.214 29.25 97.7949 29.017C97.3754 28.7844 97.1026 28.6251 96.9781 28.5388C96.8529 28.4528 96.6298 28.2978 96.3089 28.0741C95.9872 27.8499 95.7732 27.6519 95.6659 27.4796C95.5589 27.3072 95.4201 27.0831 95.2507 26.8076C95.0809 26.5316 94.9739 26.2303 94.9294 25.9025C94.8849 25.5756 94.8713 25.2141 94.8892 24.8172C94.9429 23.7319 95.4336 22.853 96.3622 22.181C97.2903 21.5094 98.4777 21.1732 99.9236 21.1732C100.727 21.1732 101.539 21.3068 102.36 21.5739C103.182 21.8414 103.815 22.1903 104.262 22.6204C104.512 22.8623 104.547 23.1462 104.369 23.4736L103.673 25.0241C103.583 25.1619 103.436 25.2179 103.231 25.1922C103.025 25.1661 102.878 25.0755 102.789 24.9204C102.522 24.4903 102.124 24.1111 101.597 23.7837C101.071 23.4568 100.549 23.2924 100.031 23.2924Z" fill="#FF7A00"/>
<path d="M112.804 23.2924C111.751 23.2924 111.225 23.6371 111.225 24.3264C111.225 24.516 111.287 24.6925 111.412 24.856C111.537 25.0203 111.72 25.1753 111.961 25.3211C112.202 25.4677 112.443 25.5971 112.684 25.7087C112.925 25.8212 113.237 25.9636 113.621 26.1355C114.005 26.3079 114.321 26.4545 114.572 26.575C115.875 27.2297 116.808 27.9447 117.37 28.7199C117.933 29.4952 118.151 30.3741 118.026 31.3562C117.865 32.5965 117.312 33.5913 116.366 34.3412C115.419 35.0908 114.152 35.4653 112.563 35.4653C111.474 35.4653 110.434 35.2454 109.443 34.8064C108.453 34.3669 107.671 33.7944 107.1 33.0878C106.868 32.795 106.824 32.5017 106.966 32.2089L107.797 30.4516C107.868 30.2793 108.006 30.2059 108.212 30.2321C108.417 30.2574 108.555 30.3741 108.627 30.5809C108.895 31.2875 109.354 31.9245 110.006 32.4933C110.657 33.0617 111.349 33.3461 112.081 33.3461C113.509 33.3461 114.224 32.8468 114.224 31.847C114.224 31.5542 114.121 31.2829 113.915 31.033C113.71 30.7832 113.501 30.5936 113.286 30.4642C113.072 30.3353 112.738 30.1588 112.282 29.9346C111.827 29.7109 111.519 29.547 111.358 29.4438C111.251 29.392 110.987 29.25 110.568 29.017C110.149 28.7844 109.876 28.6251 109.752 28.5388C109.626 28.4528 109.403 28.2978 109.082 28.0741C108.761 27.8499 108.547 27.6519 108.439 27.4796C108.332 27.3072 108.194 27.0831 108.024 26.8076C107.854 26.5316 107.747 26.2303 107.703 25.9025C107.658 25.5756 107.645 25.2141 107.663 24.8172C107.716 23.7319 108.207 22.853 109.136 22.181C110.064 21.5094 111.251 21.1732 112.697 21.1732C113.501 21.1732 114.313 21.3068 115.134 21.5739C115.955 21.8414 116.589 22.1903 117.036 22.6204C117.285 22.8623 117.321 23.1462 117.142 23.4736L116.446 25.0241C116.357 25.1619 116.21 25.2179 116.004 25.1922C115.799 25.1661 115.652 25.0755 115.563 24.9204C115.295 24.4903 114.897 24.1111 114.371 23.7837C113.844 23.4568 113.322 23.2924 112.804 23.2924Z" fill="#FF7A00"/>
<path d="M120.717 16.5472C121.189 16.0993 121.756 15.8751 122.417 15.8751C123.077 15.8751 123.645 16.0993 124.118 16.5472C124.591 16.995 124.827 17.5381 124.827 18.1751C124.827 18.813 124.591 19.3557 124.118 19.8036C123.645 20.2519 123.077 20.4756 122.417 20.4756C121.756 20.4756 121.189 20.2519 120.717 19.8036C120.243 19.3557 120.007 18.813 120.007 18.1751C120.007 17.5381 120.243 16.995 120.717 16.5472ZM120.462 34.5609V24.3004C120.462 23.4046 120.257 22.6896 119.846 22.1554C119.721 21.9831 119.681 21.8369 119.726 21.7164C119.77 21.5955 119.864 21.5352 120.007 21.5352H123.97C124.131 21.5352 124.269 21.5912 124.385 21.7029C124.501 21.8154 124.56 21.9485 124.56 22.1036V34.5609C124.56 34.699 124.501 34.8238 124.385 34.9358C124.269 35.0479 124.131 35.1035 123.97 35.1035H121.025C120.882 35.1035 120.752 35.0479 120.636 34.9358C120.52 34.8238 120.462 34.699 120.462 34.5609Z" fill="#FF7A00"/>
<path d="M134.95 33.346C136.021 33.346 136.909 32.8678 137.615 31.9118C138.32 30.955 138.673 29.7622 138.673 28.3323C138.673 26.8677 138.32 25.6615 137.615 24.7139C136.909 23.7664 136.021 23.2924 134.95 23.2924C133.897 23.2924 133.017 23.7702 132.312 24.7266C131.607 25.683 131.255 26.8846 131.255 28.3323C131.255 29.7622 131.607 30.955 132.312 31.9118C133.017 32.8678 133.897 33.346 134.95 33.346ZM134.95 21.1727C137.307 21.1727 139.221 21.8451 140.694 23.1892C142.167 24.5328 142.904 26.2475 142.904 28.3323C142.904 30.3997 142.167 32.1056 140.694 33.4492C139.221 34.7933 137.307 35.4648 134.95 35.4648C132.611 35.4648 130.705 34.7933 129.233 33.4492C127.76 32.1056 127.023 30.3997 127.023 28.3323C127.023 26.2644 127.76 24.5547 129.233 23.2018C130.705 21.8493 132.611 21.1727 134.95 21.1727Z" fill="#FF7A00"/>
<path d="M158.73 26.3164V34.5609C158.73 34.699 158.672 34.8238 158.556 34.9358C158.44 35.0483 158.302 35.1035 158.141 35.1035H155.222C155.061 35.1035 154.923 35.0483 154.807 34.9358C154.691 34.8238 154.633 34.699 154.633 34.5609V26.5751C154.633 25.6793 154.436 24.9728 154.044 24.4558C153.651 23.9389 153.089 23.6802 152.357 23.6802C151.661 23.646 151.004 23.9646 150.388 24.6366C149.772 25.3086 149.465 26.0754 149.465 26.937V34.5609C149.465 34.699 149.407 34.8238 149.29 34.9358C149.174 35.0483 149.027 35.1035 148.849 35.1035H145.93C145.787 35.1035 145.657 35.0483 145.541 34.9358C145.425 34.8238 145.368 34.699 145.368 34.5609V24.3008C145.368 23.405 145.162 22.6901 144.751 22.1554C144.626 21.9835 144.586 21.8369 144.631 21.7164C144.675 21.5959 144.769 21.5352 144.912 21.5352H148.554C148.733 21.5352 148.88 21.5912 148.996 21.7033C149.112 21.8154 149.17 21.9489 149.17 22.104V22.3366C149.17 22.5089 149.219 22.6167 149.317 22.6593C149.415 22.7027 149.527 22.6728 149.652 22.5687C150.777 21.6384 152.071 21.1733 153.535 21.1733C154.981 21.1733 156.208 21.6519 157.217 22.6079C158.225 23.5643 158.73 24.8005 158.73 26.3164Z" fill="#FF7A00"/>
<path d="M168.933 21.5091L166.71 27.2724C166.567 27.6516 166.683 27.8407 167.058 27.8407H171.155C171.548 27.8407 171.673 27.6516 171.53 27.2724L169.388 21.5091C169.352 21.389 169.281 21.3279 169.174 21.3279C169.049 21.3279 168.968 21.389 168.933 21.5091ZM167.031 17.0119H171.397C171.825 17.0119 172.11 17.2103 172.253 17.6064L178.921 34.5609C178.975 34.699 178.961 34.8238 178.881 34.9354C178.801 35.0479 178.671 35.1035 178.493 35.1035H175.011C174.618 35.1035 174.351 34.9223 174.208 34.5609L172.708 30.5288C172.619 30.2705 172.396 30.1412 172.039 30.1412H166.04C165.755 30.1412 165.567 30.2705 165.478 30.5288L163.979 34.5609C163.835 34.9223 163.567 35.1035 163.175 35.1035H161.193C161.015 35.1035 160.881 35.0479 160.792 34.9354C160.702 34.8238 160.685 34.699 160.738 34.5609L166.576 19.7779C166.772 19.2605 166.871 18.821 166.871 18.4595C166.871 18.149 166.808 17.8739 166.683 17.6325C166.612 17.4774 166.612 17.3355 166.683 17.2061C166.754 17.0768 166.871 17.0119 167.031 17.0119Z" fill="white"/>
<path d="M181.157 16.5472C181.63 16.0993 182.197 15.8751 182.858 15.8751C183.518 15.8751 184.085 16.0993 184.558 16.5472C185.031 16.995 185.268 17.5381 185.268 18.1751C185.268 18.813 185.031 19.3557 184.558 19.8036C184.085 20.2519 183.518 20.4756 182.858 20.4756C182.197 20.4756 181.63 20.2519 181.157 19.8036C180.684 19.3557 180.448 18.813 180.448 18.1751C180.448 17.5381 180.684 16.995 181.157 16.5472ZM180.902 34.5609V24.3004C180.902 23.4046 180.697 22.6896 180.286 22.1554C180.162 21.9831 180.121 21.8369 180.166 21.7164C180.211 21.5955 180.304 21.5352 180.448 21.5352H184.411C184.571 21.5352 184.71 21.5912 184.826 21.7029C184.941 21.8154 185 21.9485 185 22.1036V34.5609C185 34.699 184.941 34.8238 184.826 34.9358C184.71 35.0479 184.571 35.1035 184.411 35.1035H181.465C181.322 35.1035 181.193 35.0479 181.077 34.9358C180.961 34.8238 180.902 34.699 180.902 34.5609Z" fill="white"/>
<path d="M20.8753 25.7829C20.7618 22.6445 23.3636 20.0584 26.5981 20.0584C29.7649 20.0584 32.3248 22.5366 32.3248 25.5853C32.3248 28.6833 29.6937 31.1876 26.4667 31.1181C23.4798 31.0532 20.9796 28.6648 20.8753 25.7829ZM44.101 26.9146C43.4156 35.5884 35.8011 42.4349 26.7884 42.5276C25.5949 42.5402 24.4332 42.4361 23.3078 42.2293C22.5377 42.0873 21.9872 41.4254 21.9872 40.6691V36.4272C21.9872 36.0624 22.3609 35.802 22.7158 35.9271C23.9264 36.3531 25.2339 36.5852 26.5981 36.5852C33.3075 36.5852 38.668 30.9892 37.9267 24.3614C37.3627 19.3185 33.1499 15.2359 27.9278 14.6654C21.042 13.913 15.2013 19.091 15.2013 25.5857C15.2013 25.7939 15.2075 25.9961 15.2201 26.1979H15.2013V36.9648C15.2013 37.542 14.4714 37.8429 14.0523 37.4308C10.9545 34.383 9.04284 30.1996 9.04284 25.5857C9.04284 16.2332 16.9009 8.64304 26.5981 8.64304C36.7511 8.64304 44.8876 16.9625 44.101 26.9146ZM26.5981 0C11.9084 0 0 11.4933 0 25.6704C0 39.8475 11.9084 51.3408 26.5981 51.3408C41.2882 51.3408 53.1966 39.8475 53.1966 25.6704C53.1966 11.4933 41.2882 0 26.5981 0Z" fill="white"/>
<path d="M23.2578 25.6703C23.2578 27.4517 24.7539 28.896 26.5997 28.896C28.4459 28.896 29.9419 27.4517 29.9419 25.6703C29.9419 25.1096 29.7931 24.5821 29.5324 24.1228C29.3369 24.6537 28.8134 25.0346 28.1961 25.0346C27.4121 25.0346 26.7769 24.4211 26.7769 23.6648C26.7769 23.198 27.0192 22.7864 27.3889 22.5391C27.1357 22.4792 26.8725 22.4447 26.5997 22.4447C24.7539 22.4447 23.2578 23.889 23.2578 25.6703Z" fill="url(#paint0_linear_2437_13087)"/>
<defs>
<linearGradient id="paint0_linear_2437_13087" x1="23.2576" y1="25.6703" x2="29.9422" y2="25.6703" gradientUnits="userSpaceOnUse">
<stop stop-color="#FF6D00"/>
<stop offset="0.381838" stop-color="#FF6D00"/>
<stop offset="1" stop-color="#FF9700"/>
</linearGradient>
</defs>
</svg>
