<svg width="1329" height="549" viewBox="0 0 1329 549" fill="none" xmlns="http://www.w3.org/2000/svg">
<path d="M780.737 311.519C780.792 311.257 780.532 311.013 780.156 310.975L771.487 310.094L767.61 304.604C767.549 304.531 767.461 304.47 767.357 304.427C767.016 304.287 766.578 304.366 766.378 304.604L762.501 310.094L753.832 310.975C753.683 310.99 753.546 311.039 753.44 311.114C753.175 311.303 753.179 311.607 753.451 311.792L759.724 316.067L758.243 322.104C758.218 322.208 758.242 322.315 758.313 322.408C758.49 322.642 758.906 322.732 759.242 322.609L766.994 319.76L774.746 322.609C774.845 322.645 774.955 322.664 775.067 322.664C775.105 322.664 775.143 322.662 775.181 322.657C775.556 322.613 775.808 322.366 775.745 322.104L774.264 316.067L780.537 311.792C780.645 311.719 780.715 311.623 780.737 311.519ZM773.045 315.558C772.883 315.668 772.81 315.826 772.847 315.981L774.154 321.308L767.315 318.794C767.216 318.758 767.106 318.739 766.994 318.739C766.882 318.739 766.772 318.758 766.673 318.794L759.834 321.308L761.141 315.981C761.178 315.826 761.105 315.668 760.944 315.558L755.406 311.784L763.057 311.007C763.281 310.984 763.474 310.885 763.574 310.744L766.994 305.901L770.414 310.744C770.514 310.885 770.707 310.984 770.931 311.007L778.582 311.784L773.045 315.558Z" fill="#C2B0FA" fill-opacity="0.65"/>
<path d="M466.737 38.0714C466.792 37.6841 466.532 37.324 466.156 37.2672L457.487 35.9654L453.61 27.8486C453.549 27.7407 453.461 27.6507 453.357 27.5872C453.016 27.3809 452.578 27.4979 452.378 27.8486L448.501 35.9654L439.832 37.2672C439.683 37.2897 439.546 37.3619 439.44 37.4727C439.175 37.7524 439.179 38.2011 439.451 38.475L445.724 44.7946L444.243 53.7194C444.218 53.8727 444.242 54.0302 444.313 54.1678C444.49 54.5143 444.906 54.6474 445.242 54.4651L452.994 50.2538L460.746 54.4651C460.845 54.5184 460.955 54.5464 461.067 54.5467C461.105 54.5467 461.143 54.5434 461.181 54.5368C461.556 54.4715 461.808 54.1055 461.745 53.7194L460.264 44.7946L466.537 38.475C466.645 38.3666 466.715 38.2248 466.737 38.0714ZM459.045 44.042C458.883 44.2046 458.81 44.4381 458.847 44.6673L460.154 52.542L453.315 48.8261C453.216 48.7727 453.106 48.7447 452.994 48.7444C452.882 48.7447 452.772 48.7727 452.673 48.8261L445.834 52.542L447.141 44.6674C447.178 44.4382 447.105 44.2047 446.944 44.042L441.406 38.4625L449.057 37.3143C449.281 37.28 449.474 37.1347 449.574 36.9255L452.994 29.7661L456.414 36.9255C456.514 37.1348 456.707 37.2801 456.931 37.3143L464.582 38.4625L459.045 44.042Z" fill="#C2B0FA" fill-opacity="0.65"/>
<path d="M366.387 185.787C365.786 186.237 365.501 186.964 365.646 187.681L370.535 211.951C370.758 213.021 371.86 213.731 372.996 213.538C373.583 213.438 374.093 213.107 374.397 212.628L377.212 208.171L386.994 207.418C387.013 207.416 387.028 207.403 387.048 207.399C387.127 207.387 387.203 207.361 387.272 207.323C387.3 207.31 387.326 207.294 387.351 207.276C387.422 207.223 387.481 207.156 387.523 207.08C387.53 207.068 387.543 207.062 387.549 207.05L387.55 207.043L387.553 207.039C387.572 207 387.585 206.958 387.594 206.916C387.604 206.86 387.605 206.802 387.598 206.746C387.598 206.735 387.601 206.725 387.599 206.714C387.584 206.617 387.546 206.524 387.486 206.442C387.48 206.433 387.481 206.421 387.473 206.412L383.842 201.764L389.542 197.198C389.891 196.921 390.13 196.541 390.219 196.118C390.413 195.204 389.897 194.277 388.981 193.896L368.506 185.533C367.798 185.244 366.984 185.341 366.387 185.787ZM379.806 204.549L384.198 206.353L377.308 206.882L374.172 196.744L379.505 204.312C379.579 204.417 379.684 204.499 379.806 204.549ZM388.453 195.063C388.688 195.16 388.855 195.364 388.892 195.602C388.935 195.835 388.844 196.071 388.652 196.221L382.476 201.169C382.209 201.383 382.165 201.757 382.376 202.027L384.901 205.259L380.522 203.46L372.849 192.572C372.641 192.276 372.22 192.191 371.908 192.382C371.661 192.532 371.549 192.818 371.633 193.086L376.076 207.45L373.225 211.966C373.075 212.213 372.772 212.341 372.472 212.284C372.168 212.236 371.926 212.014 371.87 211.729L366.981 187.462C366.925 187.208 367.026 186.948 367.243 186.79C367.449 186.632 367.735 186.598 367.981 186.702L388.453 195.063Z" fill="#C2B0FA" fill-opacity="0.65"/>
<path d="M532.129 352.433C531.995 352.213 531.976 351.945 532.075 351.688C532.174 351.431 532.384 351.206 532.658 351.062L553.35 340.225C553.625 340.081 553.941 340.031 554.23 340.085C554.519 340.139 554.756 340.292 554.891 340.512C555.435 341.404 555.928 342.266 556.374 343.095C557.258 342.775 558.186 342.604 559.103 342.592C560.02 342.579 560.908 342.726 561.714 343.022C562.52 343.319 563.228 343.76 563.796 344.319C564.365 344.879 564.782 345.545 565.023 346.279C565.264 347.013 565.325 347.8 565.201 348.593C565.078 349.386 564.772 350.169 564.303 350.897C563.834 351.625 563.21 352.282 562.469 352.83C561.728 353.377 560.884 353.805 559.988 354.086C560.24 358.034 558.911 360.725 557.172 362.147L559.37 365.749L562.679 364.795C563.129 364.665 563.595 364.61 564.048 364.636L569.246 364.93C569.484 364.943 569.701 365.022 569.867 365.154C570.033 365.286 570.139 365.465 570.171 365.666C570.204 365.867 570.159 366.08 570.045 366.274C569.931 366.468 569.753 366.633 569.536 366.747L548.844 377.584C548.627 377.698 548.382 377.754 548.143 377.744C547.905 377.735 547.686 377.66 547.516 377.531C547.347 377.402 547.236 377.225 547.2 377.025C547.163 376.825 547.202 376.613 547.313 376.417L549.721 372.14C549.93 371.767 550.221 371.425 550.574 371.135L553.162 369.001L550.964 365.399C548.751 366.046 545.578 365.713 542.055 363.476C541.333 364.043 540.502 364.493 539.613 364.8C538.724 365.107 537.794 365.263 536.878 365.261C535.962 365.259 535.08 365.097 534.281 364.786C533.483 364.476 532.786 364.021 532.232 363.451C531.677 362.881 531.276 362.205 531.052 361.465C530.828 360.725 530.786 359.935 530.927 359.141C531.069 358.348 531.393 357.567 531.878 356.846C532.364 356.124 533.002 355.476 533.755 354.939C533.189 354.117 532.647 353.282 532.129 352.433V352.433ZM534.904 356.536C533.92 357.26 533.266 358.256 533.084 359.307C532.901 360.357 533.206 361.375 533.932 362.136C534.657 362.898 535.744 363.34 536.952 363.367C538.16 363.394 539.391 363.002 540.374 362.278C538.623 360.899 536.784 359.027 534.904 356.536V356.536ZM559.748 352.132C560.924 351.724 561.921 350.949 562.52 349.976C563.118 349.004 563.268 347.913 562.938 346.945C562.608 345.976 561.824 345.209 560.758 344.812C559.693 344.416 558.434 344.421 557.257 344.829C558.591 347.608 559.373 350.031 559.748 352.132ZM534.713 352.174C535.25 353.023 535.784 353.813 536.315 354.548C538.635 357.769 540.847 359.931 542.836 361.341C546.995 364.29 549.983 363.863 551.051 363.304C551.325 363.16 551.642 363.109 551.931 363.163C552.22 363.217 552.457 363.371 552.591 363.591L555.232 367.917C555.457 368.286 555.522 368.726 555.416 369.166C555.31 369.606 555.039 370.021 554.646 370.345L552.056 372.481C551.938 372.577 551.842 372.691 551.772 372.815L550.936 374.301L565.42 366.715L563.616 366.612C563.464 366.604 563.308 366.623 563.157 366.667L559.848 367.621C559.346 367.765 558.823 367.766 558.361 367.624C557.9 367.481 557.526 367.203 557.301 366.833L554.661 362.507C554.526 362.287 554.507 362.019 554.606 361.762C554.705 361.505 554.915 361.28 555.189 361.136C556.257 360.577 558.193 358.425 557.61 353.604C557.332 351.299 556.471 348.426 554.689 344.925C554.283 344.125 553.827 343.294 553.319 342.429L534.713 352.174V352.174Z" fill="#C2B0FA" fill-opacity="0.65"/>
<path d="M1316.12 37.7C1313.67 37.7 1311.74 39.295 1311.74 41.325C1311.74 43.065 1313.32 44.515 1315.24 44.805V48.575C1315.24 52.925 1310.87 56.55 1305.62 56.55C1300.37 56.55 1295.99 52.925 1295.99 48.575V45.965L1301.77 42.195C1303.69 40.89 1304.74 39.15 1304.74 37.12V29.725C1304.74 29.29 1304.39 29 1303.87 29H1300.37C1299.84 29 1299.49 29.29 1299.49 29.725C1299.49 30.16 1299.84 30.45 1300.37 30.45H1302.99V37.12C1302.99 38.715 1302.12 40.165 1300.72 41.035L1295.12 44.66L1289.52 41.035C1288.12 40.02 1287.24 38.57 1287.24 37.12V30.45H1289.87C1290.39 30.45 1290.74 30.16 1290.74 29.725C1290.74 29.29 1290.39 29 1289.87 29H1286.37C1285.84 29 1285.49 29.29 1285.49 29.725V37.12C1285.49 39.15 1286.54 41.035 1288.47 42.195L1294.24 45.965V48.575C1294.24 53.795 1299.32 58 1305.62 58C1311.92 58 1316.99 53.795 1316.99 48.575V44.805C1318.92 44.515 1320.49 43.065 1320.49 41.325C1320.49 39.295 1318.57 37.7 1316.12 37.7ZM1316.12 43.5C1314.72 43.5 1313.49 42.485 1313.49 41.325C1313.49 40.165 1314.72 39.15 1316.12 39.15C1317.52 39.15 1318.74 40.165 1318.74 41.325C1318.74 42.485 1317.52 43.5 1316.12 43.5Z" fill="#C2B0FA" fill-opacity="0.65"/>
<path d="M203.119 522.7C200.669 522.7 198.744 524.295 198.744 526.325C198.744 528.065 200.319 529.515 202.244 529.805V533.575C202.244 537.925 197.869 541.55 192.619 541.55C187.369 541.55 182.994 537.925 182.994 533.575V530.965L188.769 527.195C190.694 525.89 191.744 524.15 191.744 522.12V514.725C191.744 514.29 191.394 514 190.869 514H187.369C186.844 514 186.494 514.29 186.494 514.725C186.494 515.16 186.844 515.45 187.369 515.45H189.994V522.12C189.994 523.715 189.119 525.165 187.719 526.035L182.119 529.66L176.519 526.035C175.119 525.02 174.244 523.57 174.244 522.12V515.45H176.869C177.394 515.45 177.744 515.16 177.744 514.725C177.744 514.29 177.394 514 176.869 514H173.369C172.844 514 172.494 514.29 172.494 514.725V522.12C172.494 524.15 173.544 526.035 175.469 527.195L181.244 530.965V533.575C181.244 538.795 186.319 543 192.619 543C198.919 543 203.994 538.795 203.994 533.575V529.805C205.919 529.515 207.494 528.065 207.494 526.325C207.494 524.295 205.569 522.7 203.119 522.7ZM203.119 528.5C201.719 528.5 200.494 527.485 200.494 526.325C200.494 525.165 201.719 524.15 203.119 524.15C204.519 524.15 205.744 525.165 205.744 526.325C205.744 527.485 204.519 528.5 203.119 528.5Z" fill="#C2B0FA" fill-opacity="0.65"/>
<path d="M607.995 105.102C607.639 105.212 607.581 105.597 607.522 105.982C608.009 112.8 612.769 118.842 619.599 121.306L623.045 122.621L623.409 127.459C623.354 129.494 624.9 131.031 626.978 131.303L634.816 132.721C634.816 132.721 634.994 132.665 635.054 132.83C635.647 132.829 635.884 132.389 635.883 131.839L635.101 125.846C636.881 125.844 638.662 125.841 640.324 125.509C640.68 125.398 640.858 125.343 640.976 125.123L644.348 118.574C644.466 118.353 644.406 118.189 644.287 117.859C643.572 116.43 642.62 114.892 641.549 113.574L647.005 110.596C647.361 110.485 647.538 109.88 647.418 109.55C647.359 109.385 647.299 109.221 647.121 109.276L641.176 104.336C639.749 103.128 637.553 103.077 635.892 103.959L631.149 106.716L628 105.126C622.057 101.286 614.162 101.353 607.995 105.102ZM633.922 130.797L627.391 129.708C626.144 129.545 625.43 128.666 625.428 127.566L625.124 123.442L627.856 124.428C629.638 124.975 631.42 125.522 633.26 125.684L633.922 130.797ZM640.347 105.327L645.4 109.443L640.596 112.035C639.348 110.773 637.802 109.785 636.257 108.798L633.346 107.317L637.082 105.057C638.15 104.725 639.515 104.668 640.347 105.327ZM627.468 106.392L635.251 110.394C638.46 112.149 641.017 114.839 642.566 118.026L639.49 123.75C635.751 124.361 631.892 124.092 628.447 122.777L624.289 121.134L624.051 121.024L620.368 119.6C614.428 117.41 610.145 112.137 609.422 106.309C615.056 103.276 621.941 103.156 627.468 106.392ZM616.259 112.073C616.915 113.886 618.994 114.708 620.774 114.155C622.554 113.603 623.619 111.622 623.022 109.973C622.366 108.159 620.287 107.337 618.507 107.89C616.727 108.443 615.603 110.259 616.259 112.073ZM621.42 110.47C621.718 111.295 621.245 112.175 620.355 112.451C619.465 112.728 618.515 112.289 618.217 111.465C617.918 110.64 618.392 109.76 619.281 109.484C620.171 109.207 621.122 109.646 621.42 110.47Z" fill="#C2B0FA" fill-opacity="0.65"/>
<g clip-path="url(#clip0_3024_39)">
<path d="M1315.49 307C1315.66 307 1315.83 307.071 1315.97 307.203C1316.1 307.335 1316.21 307.522 1316.26 307.737L1317.19 311.375H1325.24C1325.68 311.375 1326.09 311.605 1326.39 312.016C1326.7 312.426 1326.87 312.982 1326.87 313.563V328.875C1326.87 329.455 1326.7 330.012 1326.39 330.422C1326.09 330.832 1325.68 331.063 1325.24 331.063H1322.24L1324.39 339.456C1324.46 339.73 1324.44 340.031 1324.35 340.292C1324.26 340.553 1324.09 340.753 1323.88 340.847C1323.68 340.942 1323.46 340.923 1323.26 340.796C1323.07 340.669 1322.92 340.443 1322.85 340.169L1320.52 331.063H1316.31V337.625C1316.31 337.915 1316.22 338.193 1316.07 338.398C1315.92 338.604 1315.71 338.719 1315.49 338.719C1315.28 338.719 1315.07 338.604 1314.92 338.398C1314.77 338.193 1314.68 337.915 1314.68 337.625V331.063H1310.47L1308.14 340.169C1308.07 340.443 1307.92 340.669 1307.73 340.796C1307.53 340.923 1307.31 340.942 1307.1 340.847C1306.9 340.753 1306.73 340.553 1306.64 340.292C1306.54 340.031 1306.53 339.73 1306.6 339.456L1308.75 331.063H1305.74C1305.31 331.063 1304.9 330.832 1304.6 330.422C1304.29 330.012 1304.12 329.455 1304.12 328.875V313.563C1304.12 312.982 1304.29 312.426 1304.6 312.016C1304.9 311.605 1305.31 311.375 1305.74 311.375H1313.79L1314.73 307.737C1314.78 307.522 1314.88 307.335 1315.02 307.203C1315.16 307.071 1315.32 307 1315.49 307V307ZM1305.74 313.563V328.875H1325.24V313.563H1305.74Z" fill="#C2B0FA" fill-opacity="0.65"/>
</g>
<g clip-path="url(#clip1_3024_39)">
<path d="M1126.02 452.942C1126.11 452.67 1126.28 452.431 1126.53 452.261C1126.77 452.092 1127.07 452 1127.37 452H1138.62C1138.84 452 1139.06 452.05 1139.26 452.144C1139.46 452.239 1139.63 452.377 1139.76 452.545C1139.89 452.714 1139.98 452.909 1140.01 453.115C1140.04 453.32 1140.02 453.53 1139.95 453.727L1134.95 467.75H1145.65C1145.91 467.75 1146.17 467.819 1146.4 467.949C1146.62 468.079 1146.8 468.265 1146.92 468.485C1147.03 468.706 1147.08 468.953 1147.05 469.197C1147.02 469.442 1146.92 469.674 1146.76 469.868L1127.07 493.493C1126.87 493.737 1126.59 493.906 1126.26 493.972C1125.94 494.038 1125.61 493.996 1125.31 493.854C1125.02 493.713 1124.79 493.479 1124.66 493.196C1124.54 492.912 1124.52 492.595 1124.62 492.302L1129.68 476.938H1120.34C1120.12 476.938 1119.9 476.89 1119.71 476.799C1119.51 476.708 1119.34 476.575 1119.21 476.412C1119.08 476.248 1118.99 476.059 1118.95 475.858C1118.92 475.657 1118.93 475.451 1118.99 475.255L1126.02 452.942ZM1128.42 454.625L1122.22 474.312H1131.59C1131.81 474.312 1132.03 474.361 1132.22 474.453C1132.42 474.546 1132.59 474.68 1132.72 474.845C1132.85 475.01 1132.94 475.202 1132.98 475.404C1133.01 475.607 1133 475.815 1132.93 476.011L1129.56 486.23L1142.78 470.375H1132.99C1132.77 470.375 1132.55 470.325 1132.35 470.231C1132.16 470.136 1131.99 469.998 1131.86 469.83C1131.72 469.661 1131.64 469.466 1131.61 469.26C1131.57 469.055 1131.59 468.845 1131.66 468.648L1136.67 454.625H1128.42Z" fill="#C2B0FA" fill-opacity="0.65"/>
</g>
<g clip-path="url(#clip2_3024_39)">
<path d="M60.9155 58.4146C61.3014 58.5539 61.6493 58.7703 61.9345 59.0485C62.2197 59.3266 62.4352 59.6596 62.5655 60.0237C63.1549 61.7147 63.5729 63.4528 63.8143 65.2156C67.0405 62.9755 68.8099 61.1856 69.584 60.3102C70.023 59.8137 70.6442 59.4846 71.3288 59.3858C73.2907 59.1016 75.2038 58.5801 77.0192 57.8346C87.3126 53.6257 91.8593 43.7632 88.2289 36.1437C84.5996 28.5266 73.6688 24.9899 63.3754 29.1988C53.0819 33.4077 48.5364 43.2726 52.1657 50.8897C53.8348 54.3928 56.9727 56.9931 60.9155 58.4146ZM64.0855 68.2524C63.5286 68.614 62.9652 68.967 62.3955 69.3112C61.9167 69.5983 61.2887 69.262 61.2807 68.7349C61.2713 68.1417 61.2394 67.549 61.185 66.9579L61.1813 66.9308C61.0015 64.9515 60.5805 62.7628 59.8945 60.845C55.3353 59.2023 51.5908 56.1429 49.5897 51.943C45.1942 42.7175 50.8579 31.4659 62.2384 26.8125C73.6189 22.1591 86.4092 25.8649 90.8048 35.0904C95.2004 44.3159 89.5367 55.5675 78.1562 60.2209C76.1163 61.058 73.9668 61.6436 71.7625 61.9627C70.722 63.1381 68.3842 65.4597 64.0855 68.2524V68.2524Z" fill="#C2B0FA" fill-opacity="0.65"/>
</g>
<g clip-path="url(#clip3_3024_39)">
<path fill-rule="evenodd" clip-rule="evenodd" d="M257.918 31.3761C258.674 31.8765 259.191 32.6252 259.356 33.4576C259.521 34.29 259.321 35.1379 258.799 35.8147L251.415 45.3847C250.938 46.0038 250.225 46.4354 249.411 46.5993C248.596 46.7632 247.735 46.6482 246.987 46.2756L245.894 51.5476C245.841 51.8058 245.718 52.0457 245.535 52.2454C245.353 52.4451 245.118 52.5984 244.851 52.6912C244.584 52.784 244.294 52.8135 244.007 52.7769C243.72 52.7403 243.446 52.6388 243.208 52.4817L232.577 45.4429C232.34 45.2857 232.148 45.0779 232.018 44.8384C231.888 44.5989 231.824 44.3353 231.832 44.0716C231.84 43.8078 231.921 43.5522 232.065 43.328C232.21 43.1038 232.415 42.9181 232.661 42.7877L237.692 40.1216C237.07 39.5869 236.673 38.8692 236.577 38.1021C236.481 37.335 236.691 36.5708 237.169 35.9519L244.552 26.3819C245.074 25.705 245.875 25.2547 246.779 25.1299C247.682 25.0051 248.615 25.2161 249.37 25.7164L257.918 31.3761ZM239.224 41.1687L233.562 44.1669L244.193 51.2057L245.422 45.272L239.224 41.1687ZM257.374 34.8714C257.635 34.533 257.735 34.1091 257.653 33.6929C257.57 33.2767 257.312 32.9023 256.934 32.6521L248.386 26.9924C248.008 26.7423 247.542 26.6368 247.09 26.6992C246.638 26.7616 246.238 26.9867 245.977 27.3251L238.593 36.8952C238.332 37.2336 238.232 37.6575 238.314 38.0737C238.397 38.4899 238.656 38.8643 239.033 39.1145L247.581 44.7742C247.959 45.0243 248.425 45.1298 248.877 45.0674C249.329 45.005 249.729 44.7799 249.99 44.4415L257.374 34.8714Z" fill="#C2B0FA" fill-opacity="0.4"/>
</g>
<g clip-path="url(#clip4_3024_39)">
<path d="M518.275 522C518.532 522 518.779 522.089 518.96 522.247C519.142 522.405 519.244 522.62 519.244 522.844V523.688H534.744V522.844C534.744 522.62 534.846 522.405 535.028 522.247C535.21 522.089 535.456 522 535.713 522C535.97 522 536.216 522.089 536.398 522.247C536.58 522.405 536.682 522.62 536.682 522.844V523.688H538.619C539.647 523.688 540.632 524.043 541.359 524.676C542.086 525.309 542.494 526.167 542.494 527.062V545.625C542.494 546.52 542.086 547.379 541.359 548.011C540.632 548.644 539.647 549 538.619 549H515.369C514.341 549 513.356 548.644 512.629 548.011C511.902 547.379 511.494 546.52 511.494 545.625V527.062C511.494 526.167 511.902 525.309 512.629 524.676C513.356 524.043 514.341 523.688 515.369 523.688H517.307V522.844C517.307 522.62 517.409 522.405 517.59 522.247C517.772 522.089 518.018 522 518.275 522V522ZM515.369 525.375C514.855 525.375 514.362 525.553 513.999 525.869C513.636 526.186 513.432 526.615 513.432 527.062V528.75H540.557V527.062C540.557 526.615 540.353 526.186 539.989 525.869C539.626 525.553 539.133 525.375 538.619 525.375H515.369ZM540.557 530.438H513.432V545.625C513.432 546.073 513.636 546.502 513.999 546.818C514.362 547.135 514.855 547.312 515.369 547.312H538.619C539.133 547.312 539.626 547.135 539.989 546.818C540.353 546.502 540.557 546.073 540.557 545.625V530.438Z" fill="#C2B0FA" fill-opacity="0.65"/>
<path d="M532.807 534.656C532.807 534.432 532.909 534.218 533.09 534.06C533.272 533.901 533.518 533.812 533.775 533.812H535.713C535.97 533.812 536.216 533.901 536.398 534.06C536.58 534.218 536.682 534.432 536.682 534.656V536.344C536.682 536.568 536.58 536.782 536.398 536.94C536.216 537.099 535.97 537.188 535.713 537.188H533.775C533.518 537.188 533.272 537.099 533.09 536.94C532.909 536.782 532.807 536.568 532.807 536.344V534.656Z" fill="#C2B0FA" fill-opacity="0.65"/>
</g>
<path d="M717.45 444.088C717.489 443.971 717.502 443.847 717.49 443.724C717.477 443.602 717.439 443.483 717.378 443.374C717.316 443.265 717.233 443.169 717.131 443.09C717.03 443.012 716.914 442.953 716.788 442.916C716.662 442.88 716.531 442.868 716.4 442.879C716.269 442.891 716.142 442.926 716.026 442.984C715.91 443.042 715.807 443.12 715.723 443.215C715.64 443.31 715.577 443.419 715.538 443.537L707.538 467.912C707.46 468.15 707.486 468.407 707.61 468.627C707.734 468.846 707.946 469.011 708.2 469.084C708.454 469.157 708.728 469.133 708.962 469.016C709.196 468.9 709.372 468.701 709.45 468.463L717.45 444.088V444.088ZM706.202 448.774C706.295 448.861 706.369 448.964 706.419 449.078C706.47 449.192 706.496 449.314 706.496 449.438C706.496 449.561 706.47 449.683 706.419 449.797C706.369 449.911 706.295 450.014 706.202 450.101L699.908 456L706.202 461.899C706.39 462.075 706.495 462.314 706.495 462.563C706.495 462.812 706.39 463.05 706.202 463.226C706.014 463.402 705.76 463.501 705.494 463.501C705.228 463.501 704.974 463.402 704.786 463.226L697.786 456.664C697.693 456.577 697.619 456.473 697.569 456.359C697.518 456.246 697.492 456.123 697.492 456C697.492 455.877 697.518 455.755 697.569 455.641C697.619 455.527 697.693 455.424 697.786 455.336L704.786 448.774C704.879 448.687 704.989 448.617 705.111 448.57C705.232 448.523 705.362 448.498 705.494 448.498C705.626 448.498 705.756 448.523 705.877 448.57C705.999 448.617 706.109 448.687 706.202 448.774V448.774ZM718.786 448.774C718.693 448.861 718.619 448.964 718.569 449.078C718.518 449.192 718.492 449.314 718.492 449.438C718.492 449.561 718.518 449.683 718.569 449.797C718.619 449.911 718.693 450.014 718.786 450.101L725.08 456L718.786 461.899C718.693 461.986 718.619 462.09 718.569 462.203C718.519 462.317 718.493 462.439 718.493 462.563C718.493 462.686 718.519 462.808 718.569 462.922C718.619 463.036 718.693 463.139 718.786 463.226C718.879 463.314 718.989 463.383 719.111 463.43C719.232 463.477 719.362 463.501 719.494 463.501C719.625 463.501 719.756 463.477 719.877 463.43C719.999 463.383 720.109 463.314 720.202 463.226L727.202 456.664C727.295 456.577 727.369 456.473 727.419 456.359C727.47 456.246 727.496 456.123 727.496 456C727.496 455.877 727.47 455.755 727.419 455.641C727.369 455.527 727.295 455.424 727.202 455.336L720.202 448.774C720.109 448.687 719.999 448.617 719.877 448.57C719.756 448.523 719.626 448.498 719.494 448.498C719.362 448.498 719.232 448.523 719.111 448.57C718.989 448.617 718.879 448.687 718.786 448.774V448.774Z" fill="#C2B0FA" fill-opacity="0.65"/>
<path d="M975.16 540.667H969.826C969.458 540.667 969.16 540.9 969.16 541.188V547.438C969.16 547.726 969.459 547.959 969.827 547.958H975.161C975.529 547.958 975.827 547.725 975.827 547.438V541.187C975.827 540.9 975.528 540.667 975.16 540.667ZM974.493 546.917H970.493V541.708H974.493V546.917ZM996.493 526.083H991.159C990.791 526.084 990.493 526.317 990.493 526.604V547.438C990.494 547.726 990.792 547.959 991.16 547.958H996.494C996.862 547.958 997.16 547.725 997.16 547.438V526.604C997.16 526.316 996.861 526.083 996.493 526.083ZM995.827 546.917H991.827V527.125H995.827V546.917ZM985.827 534.417H980.493C980.125 534.417 979.827 534.65 979.827 534.938V547.438C979.827 547.726 980.125 547.959 980.493 547.958H985.828C986.196 547.958 986.494 547.725 986.493 547.438V534.937C986.493 534.65 986.195 534.417 985.827 534.417ZM985.16 546.917H981.16V535.458H985.16V546.917Z" fill="#C2B0FA" fill-opacity="0.65"/>
<path d="M1079.95 291.868L1075.45 289.494V281.25C1075.45 280.767 1075.02 280.375 1074.49 280.375C1073.97 280.375 1073.54 280.767 1073.54 281.25V290C1073.54 290.312 1073.72 290.601 1074.02 290.757L1078.99 293.382C1079.14 293.459 1079.31 293.5 1079.47 293.5C1079.82 293.5 1080.13 293.333 1080.3 293.063C1080.57 292.645 1080.41 292.11 1079.95 291.868ZM1074.49 272.5C1063.91 272.5 1055.33 280.335 1055.33 290C1055.33 299.665 1063.91 307.5 1074.49 307.5C1085.08 307.489 1093.65 299.66 1093.66 290C1093.66 280.335 1085.08 272.5 1074.49 272.5ZM1074.49 305.75C1064.97 305.75 1057.24 298.699 1057.24 290C1057.24 281.301 1064.97 274.25 1074.49 274.25C1084.02 274.26 1091.73 281.305 1091.74 290C1091.74 298.699 1084.02 305.75 1074.49 305.75Z" fill="#C2B0FA" fill-opacity="0.65"/>
<path d="M882.953 22.8679L878.453 20.4941V12.25C878.453 11.7668 878.024 11.375 877.495 11.375C876.966 11.375 876.536 11.7668 876.536 12.25V21C876.537 21.3124 876.719 21.601 877.016 21.7571L881.994 24.3821C882.14 24.4594 882.305 24.5001 882.474 24.5C882.815 24.4998 883.131 24.3334 883.302 24.0632C883.567 23.6451 883.411 23.1098 882.953 22.8679ZM877.495 3.5C866.909 3.5 858.328 11.3351 858.328 21C858.328 30.6649 866.909 38.5 877.495 38.5C888.075 38.4887 896.649 30.6602 896.661 21C896.661 11.3351 888.08 3.5 877.495 3.5ZM877.495 36.75C867.968 36.75 860.245 29.6985 860.245 21C860.245 12.3015 867.968 5.25 877.495 5.25C887.017 5.25951 894.734 12.3054 894.745 21C894.745 29.6985 887.022 36.75 877.495 36.75Z" fill="#C2B0FA" fill-opacity="0.65"/>
<g clip-path="url(#clip5_3024_39)">
<path d="M745.137 198.451C745.351 198.662 745.495 198.936 745.537 199.214C745.579 199.491 745.517 199.749 745.363 199.93L744.205 201.295C742.976 202.743 742.476 204.804 742.814 207.023C743.153 209.242 744.304 211.439 746.012 213.129C747.72 214.82 749.847 215.865 751.924 216.037C754.001 216.208 755.859 215.491 757.088 214.042L758.246 212.677C758.4 212.496 758.632 212.407 758.892 212.428C759.151 212.449 759.417 212.58 759.631 212.791C759.844 213.003 759.988 213.277 760.03 213.555C760.073 213.832 760.01 214.09 759.857 214.271L758.698 215.636C757.262 217.328 755.136 218.226 752.732 218.156C750.328 218.086 747.817 217.053 745.688 215.257L743.342 218.021L748.173 222.802C748.386 223.013 748.53 223.287 748.572 223.565C748.615 223.842 748.552 224.1 748.399 224.281C748.245 224.462 748.013 224.551 747.753 224.53C747.494 224.509 747.228 224.378 747.014 224.167L735.742 213.013C735.528 212.801 735.384 212.527 735.342 212.249C735.299 211.972 735.362 211.714 735.516 211.533C735.669 211.352 735.901 211.263 736.161 211.284C736.421 211.305 736.687 211.436 736.9 211.648L741.731 216.428L744.077 213.663C742.235 211.529 741.063 208.919 740.789 206.339C740.515 203.759 741.158 201.394 742.594 199.701L743.753 198.336C743.906 198.155 744.139 198.066 744.398 198.087C744.658 198.108 744.924 198.239 745.137 198.451Z" fill="#C2B0FA" fill-opacity="0.65"/>
<path d="M753.868 210.855C753.253 211.58 752.324 211.938 751.286 211.853C750.247 211.767 749.184 211.244 748.33 210.399C747.476 209.554 746.901 208.455 746.731 207.346C746.562 206.236 746.812 205.206 747.426 204.482L753.219 197.656C753.833 196.932 754.762 196.573 755.801 196.659C756.839 196.745 757.902 197.267 758.757 198.113C759.611 198.958 760.186 200.056 760.355 201.166C760.525 202.275 760.275 203.306 759.66 204.03L753.868 210.855ZM759.915 196.748C758.634 195.48 757.039 194.695 755.481 194.567C753.923 194.438 752.53 194.976 751.608 196.063L745.816 202.888C744.894 203.974 744.519 205.52 744.773 207.184C745.027 208.849 745.89 210.496 747.171 211.764C748.453 213.032 750.048 213.816 751.605 213.945C753.163 214.073 754.556 213.535 755.478 212.449L761.271 205.623C762.192 204.537 762.568 202.992 762.313 201.327C762.059 199.663 761.196 198.015 759.915 196.748V196.748Z" fill="#C2B0FA" fill-opacity="0.65"/>
</g>
<g clip-path="url(#clip6_3024_39)">
<path d="M30.4607 397.096C30.3719 396.966 30.256 396.855 30.121 396.77C29.986 396.686 29.8353 396.63 29.6793 396.607L11.9656 394.016C11.757 393.986 11.547 394.015 11.3615 394.1C11.176 394.185 11.023 394.323 10.9214 394.496C10.8199 394.669 10.7741 394.87 10.7897 395.075C10.8053 395.279 10.8817 395.477 11.0094 395.646L21.6172 409.58C21.786 409.802 22.0327 409.957 22.306 410.012L35.6122 412.699L29.206 422.926C28.7149 422.619 28.1288 422.508 27.5765 422.617C27.0242 422.727 26.5511 423.049 26.2611 423.512L24.0747 427.002L29.6297 430.482L31.8161 426.991C32.1061 426.529 32.189 425.962 32.0468 425.418C31.9046 424.873 31.5488 424.394 31.0577 424.086L37.9023 413.159L39.4731 413.475C39.6803 413.517 39.8922 413.499 40.0828 413.424C40.2733 413.349 40.4342 413.22 40.5456 413.053C40.657 412.886 40.7141 412.688 40.7099 412.484C40.7057 412.28 40.6404 412.078 40.5219 411.904L30.4607 397.096V397.096ZM23.0592 408.044L14.2287 396.45L28.9713 398.606L37.3448 410.929L23.0592 408.044Z" fill="#C2B0FA" fill-opacity="0.65"/>
<path d="M15.3519 404.607C15.2592 404.49 15.1437 404.391 15.0126 404.318C14.8815 404.244 14.7377 404.197 14.5901 404.179C14.4426 404.161 14.2944 404.173 14.155 404.214C14.0155 404.255 13.8878 404.324 13.7797 404.417L10.9954 406.804C10.8001 406.971 10.6799 407.207 10.6583 407.466C10.6366 407.724 10.7151 407.986 10.8784 408.2L17.2431 416.561C17.4119 416.783 17.6586 416.938 17.9319 416.993L28.2322 419.071C28.4965 419.124 28.7665 419.08 28.9895 418.948C29.2125 418.816 29.3724 418.605 29.438 418.356L30.3706 414.809C30.4069 414.671 30.4131 414.526 30.389 414.383C30.3649 414.24 30.311 414.101 30.2305 413.976C30.15 413.851 30.0448 413.743 29.9214 413.657C29.798 413.571 29.6591 413.51 29.5134 413.478L20.865 411.545L15.3519 404.607ZM13.1784 407.797L14.4035 406.747L19.4437 413.089C19.6071 413.296 19.8387 413.441 20.0955 413.498L28.0021 415.265L27.5917 416.825L18.6851 415.025L13.1795 407.795L13.1784 407.797Z" fill="#C2B0FA" fill-opacity="0.65"/>
</g>
<path d="M436.502 374.3C433.422 374.3 431.002 376.555 431.002 379.425C431.002 381.885 432.982 383.935 435.402 384.345V389.675C435.402 395.825 429.902 400.95 423.302 400.95C416.702 400.95 411.202 395.825 411.202 389.675V385.985L418.462 380.655C420.882 378.81 422.202 376.35 422.202 373.48V363.025C422.202 362.41 421.762 362 421.102 362H416.702C416.042 362 415.602 362.41 415.602 363.025C415.602 363.64 416.042 364.05 416.702 364.05H420.002V373.48C420.002 375.735 418.902 377.785 417.142 379.015L410.102 384.14L403.062 379.015C401.302 377.58 400.202 375.53 400.202 373.48V364.05H403.502C404.162 364.05 404.602 363.64 404.602 363.025C404.602 362.41 404.162 362 403.502 362H399.102C398.442 362 398.002 362.41 398.002 363.025V373.48C398.002 376.35 399.322 379.015 401.742 380.655L409.002 385.985V389.675C409.002 397.055 415.382 403 423.302 403C431.222 403 437.602 397.055 437.602 389.675V384.345C440.022 383.935 442.002 381.885 442.002 379.425C442.002 376.555 439.582 374.3 436.502 374.3ZM436.502 382.5C434.742 382.5 433.202 381.065 433.202 379.425C433.202 377.785 434.742 376.35 436.502 376.35C438.262 376.35 439.802 377.785 439.802 379.425C439.802 381.065 438.262 382.5 436.502 382.5Z" fill="#A6CFF5" fill-opacity="0.4"/>
<defs>
<clipPath id="clip0_3024_39">
<rect width="26" height="35" fill="white" transform="translate(1302.49 307)"/>
</clipPath>
<clipPath id="clip1_3024_39">
<rect width="45" height="42" fill="white" transform="translate(1110.49 452)"/>
</clipPath>
<clipPath id="clip2_3024_39">
<rect width="44.5274" height="42.2934" fill="white" transform="matrix(0.925611 -0.378475 0.430132 0.902766 40.4941 32.8525)"/>
</clipPath>
<clipPath id="clip3_3024_39">
<rect width="25.7862" height="27.3381" fill="white" transform="matrix(-0.610851 0.791745 -0.833798 -0.552069 265.041 36.0928)"/>
</clipPath>
<clipPath id="clip4_3024_39">
<rect width="31" height="27" fill="white" transform="translate(511.494 522)"/>
</clipPath>
<clipPath id="clip5_3024_39">
<rect width="36.2475" height="28.6474" fill="white" transform="matrix(0.710839 0.703355 -0.647057 0.762442 747.031 184)"/>
</clipPath>
<clipPath id="clip6_3024_39">
<rect width="34.959" height="32.9498" fill="white" transform="translate(17.4941 384) rotate(32.0628)"/>
</clipPath>
</defs>
</svg>
