<svg width="80" height="79" viewBox="0 0 80 79" fill="none" xmlns="http://www.w3.org/2000/svg">
<path d="M42.465 50.373C42.465 51.6567 41.3623 52.6973 40.002 52.6973C38.6418 52.6973 37.5391 51.6567 37.5391 50.373C37.5391 49.0894 38.6418 48.0488 40.002 48.0488C41.3623 48.0488 42.465 49.0894 42.465 50.373Z" fill="white"/>
<ellipse cx="40" cy="39.5" rx="40" ry="39.5" fill="#FF7A00"/>
<path d="M21.7036 60.4998H58.2963C58.6849 60.4998 59 60.2024 59 59.8357C59 59.469 58.6849 59.1716 58.2963 59.1716H56.5825C57.23 58.5523 57.5928 57.7172 57.5926 56.8474V43.8986C57.5916 43.0184 57.2206 42.1744 56.5609 41.5518C55.9012 40.9293 55.0068 40.5792 54.0741 40.5783H53.6713C53.3191 36.4872 50.6922 32.8805 46.7709 31.1038L46.7706 31.1041C46.6339 31.2464 46.4907 31.3822 46.3446 31.5153C46.3125 31.5443 46.2808 31.5734 46.2481 31.6022C46.0995 31.7335 45.9478 31.861 45.7901 31.9831C45.7819 31.9893 45.7734 31.9953 45.7653 32.0015C45.6088 32.1218 45.4474 32.236 45.2824 32.3466C45.2589 32.3623 45.2356 32.3786 45.2117 32.394C45.0355 32.5096 44.8552 32.6196 44.6704 32.724L44.6585 32.7305C44.4666 32.8384 44.2699 32.9395 44.0688 33.0337L44.0629 33.0364L44.0632 33.0361C41.5056 34.2374 38.4992 34.2383 35.9412 33.0382L35.9368 33.0361C35.7361 32.9418 35.54 32.8411 35.3481 32.7334C35.3427 32.7305 35.3368 32.7275 35.3314 32.7245C35.1467 32.6205 34.9661 32.5105 34.7901 32.3946C34.7666 32.3792 34.7437 32.3632 34.7201 32.3474C34.5555 32.2372 34.394 32.123 34.2375 32.003C34.2288 31.9961 34.2196 31.9899 34.2108 31.9831C34.0531 31.8613 33.9008 31.7332 33.7522 31.6019C33.7198 31.5734 33.6881 31.5443 33.6564 31.5156C33.51 31.3822 33.3664 31.2461 33.2294 31.1038L33.2291 31.1035V31.1038C29.3078 32.8802 26.6809 36.4872 26.3287 40.5783H25.9259C24.9932 40.5792 24.0988 40.9293 23.4391 41.5518C22.7794 42.1744 22.4084 43.0184 22.4074 43.8986V56.8474C22.4071 57.7172 22.7699 58.5524 23.4175 59.1716H21.7037C21.3151 59.1716 21 59.469 21 59.8357C21 60.2024 21.3151 60.4998 21.7037 60.4998H21.7036ZM23.8147 43.8982C23.8153 43.3699 24.038 42.8636 24.4336 42.49C24.8294 42.1168 25.366 41.9066 25.9258 41.906H54.0741C54.6339 41.9066 55.1705 42.1168 55.5663 42.49C55.9619 42.8636 56.1846 43.3699 56.1852 43.8982V56.847C56.1846 57.3753 55.9619 57.8817 55.5663 58.2552C55.1705 58.6285 54.6339 58.8387 54.0741 58.8393H25.9258C25.366 58.8387 24.8294 58.6285 24.4336 58.2552C24.038 57.8817 23.8153 57.3753 23.8147 56.847V43.8982Z" fill="white"/>
<path d="M47.7403 25.3047C47.7403 29.3388 44.2746 32.6094 39.9996 32.6094C35.7246 32.6094 32.2588 29.3388 32.2588 25.3047C32.2588 21.2705 35.7246 18 39.9996 18C44.2746 18 47.7403 21.2705 47.7403 25.3047Z" fill="white"/>
</svg>
