<svg width="12" height="11" viewBox="0 0 12 11" fill="none" xmlns="http://www.w3.org/2000/svg">
<path d="M6.63151 6.42586C6.50642 6.54854 6.35557 6.64693 6.18795 6.71518C6.02034 6.78342 5.83941 6.82012 5.65594 6.82308C5.47247 6.82603 5.29023 6.79519 5.12009 6.73239C4.94995 6.6696 4.79539 6.57613 4.66564 6.45756C4.53589 6.33899 4.4336 6.19776 4.36488 6.04229C4.29615 5.88681 4.2624 5.72028 4.26564 5.55263C4.26888 5.38498 4.30903 5.21964 4.38372 5.06648C4.4584 4.91332 4.56608 4.77547 4.70032 4.66116M8.3714 8.01576C7.59282 8.55808 6.64477 8.85852 5.66592 8.87314C2.47764 8.87314 0.655762 5.54351 0.655762 5.54351C1.22231 4.57871 2.00811 3.73577 2.96043 3.07126L8.3714 8.01576ZM4.70943 2.31377C5.02295 2.24671 5.34393 2.21319 5.66592 2.21388C8.8542 2.21388 10.6761 5.54351 10.6761 5.54351C10.3996 6.01616 10.0699 6.46113 9.69226 6.8712L4.70943 2.31377Z" stroke="black" stroke-linecap="round" stroke-linejoin="round"/>
<path d="M0.655762 0.965332L10.6761 10.1218" stroke="black" stroke-linecap="round" stroke-linejoin="round"/>
</svg>
