<svg width="211" height="48" viewBox="0 0 211 48" fill="none" xmlns="http://www.w3.org/2000/svg">
<circle cx="24" cy="24" r="20" fill="#282B45"/>
<circle cx="24" cy="24" r="23.5" stroke="#FF7A00"/>
<path d="M31.5616 23.6624C32.1999 24.0497 32.2041 24.9746 31.5692 25.3676L21.0755 31.8636C20.411 32.275 19.5526 31.7993 19.5491 31.0178L19.4915 18.1197C19.488 17.3382 20.3421 16.8549 21.0103 17.2603L31.5616 23.6624Z" fill="#FF7A00"/>
<path d="M85.7432 14.1533L81.0801 32H77.8818L74.9033 21.3066C74.8301 21.0462 74.7487 20.737 74.6592 20.3789C74.5697 20.0208 74.4801 19.6546 74.3906 19.2803C74.3092 18.9059 74.236 18.5641 74.1709 18.2549C74.1139 17.9375 74.0732 17.6934 74.0488 17.5225C74.0326 17.6934 73.9959 17.9334 73.939 18.2427C73.882 18.5519 73.8128 18.8937 73.7314 19.2681C73.6582 19.6343 73.5768 20.0005 73.4873 20.3667C73.3978 20.7248 73.3164 21.0422 73.2432 21.3188L70.3135 32H67.1274L62.4766 14.1533H65.4185L67.9941 24.6147C68.0755 24.9484 68.1569 25.3105 68.2383 25.7012C68.3278 26.0837 68.4092 26.4702 68.4824 26.8608C68.5638 27.2515 68.637 27.634 68.7021 28.0083C68.7673 28.3745 68.8201 28.7082 68.8608 29.0093C68.9015 28.7 68.9544 28.3582 69.0195 27.9839C69.0846 27.6014 69.1538 27.2148 69.2271 26.8242C69.3084 26.4255 69.3898 26.043 69.4712 25.6768C69.5607 25.3105 69.6502 24.981 69.7397 24.688L72.645 14.1533H75.5015L78.4678 24.7246C78.5573 25.0257 78.6427 25.3634 78.7241 25.7378C78.8136 26.1121 78.8991 26.4946 78.9805 26.8853C79.0618 27.2759 79.1351 27.6543 79.2002 28.0205C79.2653 28.3867 79.3182 28.7163 79.3589 29.0093C79.4159 28.6105 79.4891 28.1548 79.5786 27.6421C79.6681 27.1294 79.7699 26.6086 79.8838 26.0796C79.9977 25.5506 80.1117 25.0623 80.2256 24.6147L82.7891 14.1533H85.7432ZM93.2749 18.2305C94.9839 18.2305 96.2738 18.6089 97.1445 19.3657C98.0234 20.1226 98.4629 21.3026 98.4629 22.9058V32H96.4243L95.875 30.0835H95.7773C95.3949 30.5718 95.0002 30.9746 94.5933 31.292C94.1864 31.6094 93.7144 31.8454 93.1772 32C92.6483 32.1628 92.0013 32.2441 91.2363 32.2441C90.4307 32.2441 89.7104 32.0977 89.0757 31.8047C88.4409 31.5036 87.9404 31.0479 87.5742 30.4375C87.208 29.8271 87.0249 29.054 87.0249 28.1182C87.0249 26.7266 87.5417 25.6808 88.5752 24.981C89.6169 24.2811 91.1875 23.8945 93.2871 23.8213L95.6309 23.7358V23.0278C95.6309 22.092 95.4111 21.4246 94.9717 21.0259C94.5404 20.6271 93.93 20.4277 93.1406 20.4277C92.4652 20.4277 91.8101 20.5254 91.1753 20.7207C90.5405 20.916 89.922 21.1561 89.3198 21.4409L88.3921 19.4146C89.0513 19.0646 89.8 18.7798 90.6382 18.5601C91.4845 18.3403 92.3634 18.2305 93.2749 18.2305ZM95.6187 25.5425L93.873 25.6035C92.4408 25.6523 91.4357 25.8965 90.8579 26.3359C90.2801 26.7754 89.9912 27.3776 89.9912 28.1426C89.9912 28.8099 90.1906 29.2982 90.5894 29.6074C90.9881 29.9085 91.513 30.0591 92.1641 30.0591C93.1569 30.0591 93.9788 29.7783 94.6299 29.2168C95.2891 28.6471 95.6187 27.813 95.6187 26.7144V25.5425ZM107.508 29.9248C107.883 29.9248 108.253 29.8923 108.619 29.8271C108.985 29.7539 109.319 29.6685 109.62 29.5708V31.7437C109.303 31.882 108.892 32 108.387 32.0977C107.883 32.1953 107.358 32.2441 106.812 32.2441C106.048 32.2441 105.36 32.118 104.75 31.8657C104.139 31.6053 103.655 31.1618 103.297 30.5352C102.939 29.9085 102.76 29.0418 102.76 27.9351V20.6719H100.917V19.3901L102.894 18.377L103.834 15.4839H105.641V18.4868H109.51V20.6719H105.641V27.8984C105.641 28.582 105.812 29.0907 106.153 29.4243C106.495 29.758 106.947 29.9248 107.508 29.9248ZM117.811 32.2441C116.533 32.2441 115.427 31.9959 114.491 31.4995C113.555 31.0031 112.835 30.2422 112.33 29.2168C111.826 28.1914 111.573 26.8893 111.573 25.3105C111.573 23.6667 111.85 22.3239 112.403 21.2822C112.957 20.2406 113.722 19.4715 114.698 18.9751C115.683 18.4787 116.81 18.2305 118.08 18.2305C118.885 18.2305 119.614 18.3118 120.265 18.4746C120.924 18.6292 121.481 18.8205 121.937 19.0483L121.083 21.3433C120.586 21.1398 120.077 20.9689 119.557 20.8306C119.036 20.6922 118.535 20.623 118.055 20.623C117.266 20.623 116.607 20.798 116.078 21.1479C115.557 21.4979 115.166 22.0187 114.906 22.7104C114.653 23.4022 114.527 24.2607 114.527 25.2861C114.527 26.279 114.658 27.1172 114.918 27.8008C115.178 28.4762 115.565 28.9889 116.078 29.3389C116.59 29.6807 117.221 29.8516 117.97 29.8516C118.71 29.8516 119.374 29.762 119.959 29.583C120.545 29.404 121.099 29.172 121.62 28.8872V31.3774C121.107 31.6704 120.558 31.8861 119.972 32.0244C119.386 32.1709 118.666 32.2441 117.811 32.2441ZM127.662 13.0059V17.7788C127.662 18.2752 127.646 18.7594 127.613 19.2314C127.589 19.7035 127.56 20.0697 127.528 20.3301H127.687C127.971 19.8581 128.321 19.4715 128.736 19.1704C129.151 18.8612 129.615 18.6292 130.128 18.4746C130.649 18.32 131.202 18.2427 131.788 18.2427C132.822 18.2427 133.701 18.4176 134.425 18.7676C135.149 19.1094 135.702 19.6424 136.085 20.3667C136.476 21.091 136.671 22.0309 136.671 23.1865V32H133.802V23.7236C133.802 22.6738 133.587 21.8885 133.155 21.3677C132.724 20.8387 132.057 20.5742 131.153 20.5742C130.283 20.5742 129.591 20.7573 129.078 21.1235C128.574 21.4816 128.211 22.0146 127.992 22.7227C127.772 23.4225 127.662 24.277 127.662 25.2861V32H124.793V13.0059H127.662ZM150.27 32L145.13 18.4868H148.17L150.953 26.4214C151.132 26.9259 151.295 27.4712 151.441 28.0571C151.588 28.6431 151.69 29.1354 151.747 29.5342H151.844C151.901 29.1191 152.011 28.6227 152.174 28.0449C152.337 27.459 152.503 26.9178 152.674 26.4214L155.458 18.4868H158.485L153.346 32H150.27ZM163.404 18.4868V32H160.536V18.4868H163.404ZM161.988 13.311C162.428 13.311 162.806 13.429 163.124 13.665C163.449 13.901 163.612 14.3079 163.612 14.8857C163.612 15.4554 163.449 15.8623 163.124 16.1064C162.806 16.3424 162.428 16.4604 161.988 16.4604C161.533 16.4604 161.146 16.3424 160.829 16.1064C160.519 15.8623 160.365 15.4554 160.365 14.8857C160.365 14.3079 160.519 13.901 160.829 13.665C161.146 13.429 161.533 13.311 161.988 13.311ZM172.059 32.2441C170.448 32.2441 169.154 31.6582 168.177 30.4863C167.209 29.3063 166.725 27.5688 166.725 25.2739C166.725 22.9546 167.217 21.2008 168.202 20.0127C169.194 18.8245 170.501 18.2305 172.12 18.2305C172.804 18.2305 173.402 18.3241 173.915 18.5112C174.427 18.6903 174.867 18.9344 175.233 19.2437C175.607 19.5529 175.925 19.8988 176.185 20.2812H176.319C176.279 20.029 176.23 19.6668 176.173 19.1948C176.124 18.7147 176.1 18.2712 176.1 17.8643V13.0059H178.98V32H176.734L176.222 30.1567H176.1C175.855 30.5474 175.546 30.9014 175.172 31.2188C174.806 31.528 174.366 31.7762 173.854 31.9634C173.349 32.1506 172.751 32.2441 172.059 32.2441ZM172.865 29.9126C174.094 29.9126 174.96 29.5586 175.465 28.8506C175.969 28.1426 176.23 27.0806 176.246 25.6646V25.2861C176.246 23.7725 176.002 22.6128 175.514 21.8071C175.025 20.9933 174.134 20.5864 172.84 20.5864C171.807 20.5864 171.017 21.0055 170.472 21.8438C169.935 22.6738 169.667 23.8335 169.667 25.3228C169.667 26.812 169.935 27.9513 170.472 28.7407C171.017 29.522 171.815 29.9126 172.865 29.9126ZM188.478 18.2305C189.682 18.2305 190.715 18.4787 191.578 18.9751C192.441 19.4715 193.104 20.1755 193.568 21.0869C194.032 21.9984 194.264 23.0889 194.264 24.3584V25.8965H185.243C185.275 27.2067 185.625 28.2158 186.292 28.9238C186.968 29.6318 187.912 29.9858 189.125 29.9858C189.987 29.9858 190.76 29.9045 191.444 29.7417C192.136 29.5708 192.848 29.3226 193.58 28.9971V31.3286C192.905 31.646 192.217 31.8779 191.517 32.0244C190.817 32.1709 189.979 32.2441 189.002 32.2441C187.676 32.2441 186.508 31.9878 185.499 31.4751C184.498 30.9543 183.713 30.1812 183.143 29.1558C182.582 28.1304 182.301 26.8568 182.301 25.335C182.301 23.8213 182.557 22.5355 183.07 21.4775C183.583 20.4196 184.303 19.6139 185.23 19.0605C186.158 18.5072 187.241 18.2305 188.478 18.2305ZM188.478 20.3911C187.574 20.3911 186.842 20.6841 186.28 21.27C185.727 21.856 185.401 22.7145 185.304 23.8457H191.456C191.448 23.1702 191.334 22.5721 191.114 22.0513C190.903 21.5304 190.577 21.1235 190.138 20.8306C189.706 20.5376 189.153 20.3911 188.478 20.3911ZM209.461 25.2129C209.461 26.3359 209.315 27.3328 209.022 28.2036C208.729 29.0744 208.302 29.8109 207.74 30.4131C207.179 31.0072 206.503 31.4629 205.714 31.7803C204.924 32.0895 204.033 32.2441 203.041 32.2441C202.113 32.2441 201.262 32.0895 200.489 31.7803C199.716 31.4629 199.045 31.0072 198.475 30.4131C197.914 29.8109 197.478 29.0744 197.169 28.2036C196.86 27.3328 196.705 26.3359 196.705 25.2129C196.705 23.7236 196.961 22.4622 197.474 21.4287C197.995 20.387 198.736 19.5936 199.696 19.0483C200.656 18.5031 201.799 18.2305 203.126 18.2305C204.371 18.2305 205.47 18.5031 206.422 19.0483C207.374 19.5936 208.119 20.387 208.656 21.4287C209.193 22.4704 209.461 23.7318 209.461 25.2129ZM199.659 25.2129C199.659 26.1976 199.777 27.0399 200.013 27.7397C200.257 28.4396 200.632 28.9767 201.136 29.3511C201.641 29.7173 202.292 29.9004 203.089 29.9004C203.887 29.9004 204.538 29.7173 205.042 29.3511C205.547 28.9767 205.917 28.4396 206.153 27.7397C206.389 27.0399 206.507 26.1976 206.507 25.2129C206.507 24.2282 206.389 23.394 206.153 22.7104C205.917 22.0187 205.547 21.4938 205.042 21.1357C204.538 20.7695 203.883 20.5864 203.077 20.5864C201.889 20.5864 201.022 20.9852 200.477 21.7827C199.932 22.5802 199.659 23.7236 199.659 25.2129Z" fill="#263238"/>
</svg>
